
<svg xmlns="http://www.w3.org/2000/svg" width="340.12" height="77.737999" viewBox="0 0 89.99008 20.568179" version="1.1">
  <g fill="#F7A7BB">
    <path d="M 11.655535,20.568156 H 0 V 0.0135157 h 10.754677 a 5.2901333,5.2901333 0 0 1 1.205207,0.1448994 6.2751309,6.2751307 0 0 1 1.218874,0.4241035 6.9766851,6.9766851 0 0 1 1.112425,0.6485183 4.6599388,4.6599385 0 0 1 0.887338,0.8212937 5.9354715,5.9354709 0 0 1 1.019942,1.7745555 5.8343418,5.8343418 0 0 1 0.357608,2.0129833 5.6916228,5.6916228 0 0 1 -0.476469,2.29124 5.5698831,5.569883 0 0 1 -1.377473,1.9206626 5.460037,5.4600367 0 0 1 1.07283,0.901165 5.7609878,5.7609876 0 0 1 0.834743,1.165905 6.5175761,6.5175761 0 0 1 0.542953,1.337718 4.9916201,4.9916201 0 0 1 0.199459,1.363604 5.6740416,5.6740414 0 0 1 -0.437463,2.211836 5.6147969,5.6147969 0 0 1 -1.218135,1.828295 6.0352713,6.0352707 0 0 1 -1.814865,1.244442 5.3630441,5.3630441 0 0 1 -2.226108,0.463332 z M 9.0857083,4.1446083 H 5.4034526 V 8.330656 h 3.6820327 a 2.0931385,2.0931384 0 0 0 0,-4.1860477 z m 0.185723,7.9202337 H 5.4034637 v 4.159325 h 3.8677436 a 2.0811714,2.0811714 0 0 0 2.0925497,-2.069889 c 0,-0.0084 0,-0.01397 0,-0.02234 A 1.9883893,1.9883892 0 0 0 10.754319,12.674916 2.0186025,2.0186025 0 0 0 9.2714313,12.065168 Z" id="path40"></path>
    <path d="M 20.870146,20.568156 V 0.0135157 h 5.695466 V 15.482112 h 10.807347 v 5.086044 z" id="path42"></path>
    <path d="M 41.093107,20.554694 V 4.184e-4 h 5.53583 V 20.555082 Z" id="path44"></path>
    <path d="M 50.172095,20.555082 V 0.0268025 H 55.68206 V 11.098396 L 62.833753,0.0268025 h 5.457229 V 20.555082 H 62.807819 V 9.5889137 L 55.68206,20.555003 Z" id="path46"></path>
    <path d="m 81.593024,9.720471 8.131884,10.83417 h -6.674925 l -5.642048,-6.91325 v 6.91325 H 71.765804 V 0 h 5.642131 V 6.9132174 L 83.049983,0 h 6.940044 z" id="path48"></path>
  </g>
</svg>