
<svg width="135.46666mm" height="135.46666mm" viewBox="0 0 135.46666 135.46666" version="1.1" id="svg5" xmlns="http://www.w3.org/2000/svg">
  
  <defs id="defs2"></defs>
  <g id="layer1" transform="translate(5.2070141,-10.424565)" style="display:inline">
    <rect style="display:inline;opacity:1;fill:#0be6c1;fill-opacity:1;stroke-width:0.334404;stop-color:#000000" id="rect8562" width="135.46666" height="135.46666" x="-5.2070141" y="10.424565" ry="0"></rect>
    <path id="path4123" style="display:inline;opacity:1;fill:#ffffff;fill-opacity:1;stroke-width:0.999999" d="m 214.99219,136.35352 c -48.15247,-1.3e-4 -87.18776,38.46502 -87.1875,85.91406 0.0176,20.37102 11.43423,38.45572 17.87109,44.89258 2.60311,2.60311 6.79102,7.56942 6.79102,13.2539 0,10.18617 -9.10204,16.93479 -15.31179,24.44664 -1.54578,1.90624 0.13559,2.98109 1.15465,2.98109 h 67.00479 c 0,0 15.80122,0.27084 24.7168,-0.74805 39.22153,-6.76787 72.12202,-43.11491 72.14844,-84.82617 2.6e-4,-47.44904 -39.03503,-85.91419 -87.1875,-85.91406 z m -0.41797,45.3789 c 1.25615,-8.9e-4 2.37709,1.64273 2.91601,2.57617 l 8.42383,19.35352 22.2461,3.5957 c 1.1675,0.31283 2.3125,0.54097 2.3125,1.97461 0,1.43363 -0.73335,2.14742 -1.6211,3.03516 l -14.87695,15.00195 3.13672,20.3125 c 0,0 0.87352,3.36084 -0.0645,4.29883 -0.93799,0.93793 -2.67025,0.75787 -4.83204,-0.49024 L 214.80859,242 l -17.58007,9.16797 c -1.55327,0.89677 -3.36163,1.43714 -4.26758,0.95898 -0.90595,-0.47816 -1.11957,-1.13507 -0.68164,-3.94922 l 3.0664,-20.85742 -14.84375,-15.42187 c -0.81947,-0.81947 -1.53888,-1.67508 -1.53906,-2.68946 0.001,-0.94747 0.91261,-1.78867 2.17188,-1.94921 l 22.08593,-3.46485 8.57618,-20.13672 c 0.38376,-0.66472 1.5212,-1.92489 2.77734,-1.92578 z" transform="matrix(0.26458333,0,0,0.26458333,-5.2070141,10.424565)"></path>
    <path style="display:inline;opacity:1;fill:#ffffff;fill-opacity:1;stroke-width:0.264583" d="m 55.389105,97.431128 c 3.25059,4.903552 9.112481,8.982972 17.276025,8.982972 h 15.694733 c -0.762462,-1.32062 -1.799813,-3.1057 -2.044123,-3.88307 -0.24431,-0.77737 -0.158681,-2.09086 0.308662,-3.21618 1.843987,-3.71611 6.473773,-6.080334 6.473773,-15.20383 C 92.876906,75.790073 86.990124,69.006997 79.554963,65.993735 v -3.768206 c 13.117541,4.598732 17.130123,16.252172 17.130123,22.002533 0,9.004131 -5.015406,14.043423 -6.331493,15.724939 -1.316087,1.681519 -0.0024,3.193549 -0.0024,3.193549 1.173813,1.84767 4.740443,5.49382 4.740443,5.49382 0.315378,0.31538 0.707269,1.23284 -0.379595,1.23284 l -21.45372,-0.007 c -8.693598,0 -16.14999,-2.75366 -22.176528,-12.434762 z" id="path1117"></path>
  </g>
</svg>
