<svg xmlns="http://www.w3.org/2000/svg" viewBox="0 0 66.58 18.17"><g id="레이어_2"><g id="레이어_1-2"><polygon points="45.56 5.54 45.56 7.73 43.85 7.73 43.85 5.54 41.48 0.11 43.27 0.11 44.7 3.65 46.13 0.11 47.93 0.11 45.56 5.54" style="fill:#13090b"></polygon><path d="M51.12,7.85c-1.85,0-2.79-.95-2.79-2.34V2.33c0-1.4.94-2.33,2.79-2.33a13.07,13.07,0,0,1,2.44.24l-.21,1.5a18.36,18.36,0,0,0-2.23-.18c-.85,0-1.07.44-1.07,1V5.22A.94.94,0,0,0,51.12,6.3a7.77,7.77,0,0,0,1-.06V3.9h1.61V7.48a9.6,9.6,0,0,1-2.63.37" style="fill:#13090b"></path><path d="M45.24,15.74h-1.3v2.31H42.22V10.43h3.11c1.86,0,2.54.73,2.54,2.16v1c0,1.43-.78,2.15-2.63,2.15m.92-3c0-.54-.2-.8-.92-.8h-1.3v2.3h1.3c.76,0,.92-.28.92-.83Z" style="fill:#13090b"></path><polygon points="48.9 18.05 48.9 10.43 50.62 10.43 50.62 16.53 53.64 16.53 53.64 18.05 48.9 18.05" style="fill:#13090b"></polygon><path d="M60.13,10.43v5.4c0,1.16-.72,2.34-2.87,2.34S54.38,17,54.38,15.83v-5.4H56.1v5.24c0,.62.3,1,1.16,1s1.15-.35,1.15-1V10.43Z" style="fill:#13090b"></path><path d="M63.79,18.17a6.23,6.23,0,0,1-2.46-.5l.29-1.32a7.44,7.44,0,0,0,2.19.36c.88,0,1.06-.17,1.06-.81s0-.77-1.29-1c-1.84-.4-2.11-.77-2.11-2.41s.54-2.13,2.63-2.13a11.33,11.33,0,0,1,2.31.25L66.24,12a11.56,11.56,0,0,0-2.12-.22c-.76,0-.93.14-.93.7,0,.73,0,.75,1.23,1,2.06.49,2.16.89,2.16,2.39s-.49,2.26-2.79,2.26" style="fill:#13090b"></path><polygon points="0 0.02 0 10.28 10.25 0.02 0 0.02" style="fill:#13090b"></polygon><polygon points="18.08 0.02 0 18.11 8.21 18.11 18.08 8.23 27.93 18.11 36.16 18.11 36.16 8.34 30.8 8.34 30.8 12.89 23.25 5.34 36.16 5.34 36.16 0.02 18.08 0.02" style="fill:#13090b"></polygon></g></g></svg>