
<svg xmlns="http://www.w3.org/2000/svg" version="1.1" id="svg234" xml:space="preserve" width="170.10001" height="170.10001" viewBox="0 0 170.10001 170.10001"><defs id="defs238"><clipPath clipPathUnits="userSpaceOnUse" id="clipPath250"><path d="M 0,141.73 H 141.73 V 0 H 0 Z" id="path248"></path></clipPath></defs><g id="g242" transform="matrix(1.3333333,0,0,-1.3333333,0,188.97333)"><g id="g244" transform="translate(-7.0855,7.085801)"><g id="g246" clip-path="url(#clipPath250)"><g id="g252" transform="translate(134.6445,70.8652)"><path d="m 0,0 c 0,-35.225 -28.555,-63.779 -63.779,-63.779 -35.225,0 -63.78,28.554 -63.78,63.779 0,35.225 28.555,63.779 63.78,63.779 C -28.555,63.779 0,35.225 0,0" style="fill:#057697;fill-opacity:1;fill-rule:evenodd;stroke:none" id="path254"></path></g><g id="g256" transform="translate(130.833,70.8652)"><path d="m 0,0 c 0,-33.119 -26.849,-59.968 -59.968,-59.968 -33.119,0 -59.968,26.849 -59.968,59.968 0,33.119 26.849,59.968 59.968,59.968 C -26.849,59.968 0,33.119 0,0" style="fill:#00284c;fill-opacity:1;fill-rule:evenodd;stroke:none" id="path258"></path></g><g id="g260" transform="translate(70.8652,130.2764)"><path d="m 0,0 c -32.76,0 -59.411,-26.651 -59.411,-59.411 0,-32.759 26.651,-59.411 59.411,-59.411 32.76,0 59.411,26.652 59.411,59.411 C 59.411,-26.651 32.76,0 0,0 m 0,-119.935 c -16.167,0 -31.365,6.296 -42.797,17.727 -11.432,11.432 -17.726,26.631 -17.726,42.797 0,16.167 6.294,31.365 17.726,42.797 11.432,11.431 26.63,17.726 42.797,17.726 16.166,0 31.365,-6.295 42.797,-17.726 11.432,-11.432 17.726,-26.63 17.726,-42.797 0,-16.166 -6.294,-31.365 -17.726,-42.797 C 31.365,-113.639 16.166,-119.935 0,-119.935" style="fill:#ffffff;fill-opacity:1;fill-rule:nonzero;stroke:none" id="path262"></path></g><g id="g264" transform="translate(41.0049,101.4902)"><path d="m 0,0 c -0.702,-1.514 -1.393,-2.699 -2.07,-3.554 -1.456,-1.84 -3.032,-2.86 -4.725,-3.063 -1.693,-0.203 -3.211,0.227 -4.556,1.292 -1.414,1.12 -2.233,2.61 -2.458,4.471 -0.225,1.862 0.389,3.709 1.841,5.543 0.682,0.861 1.355,1.563 2.021,2.106 l 1.559,-1.666 c -0.87,-0.677 -1.569,-1.35 -2.098,-2.018 -0.894,-1.128 -1.237,-2.226 -1.031,-3.295 0.207,-1.068 0.778,-1.972 1.712,-2.712 0.954,-0.755 2.034,-1.103 3.236,-1.042 1.203,0.061 2.238,0.639 3.106,1.735 0.241,0.305 0.49,0.682 0.748,1.13 -0.618,0.359 -1.194,0.75 -1.729,1.174 -0.539,0.427 -1.191,0.851 -1.954,1.273 l 1.796,2.27 C -3.865,2.991 -3.108,2.357 -2.329,1.74 -1.764,1.293 -0.988,0.713 0,0" style="fill:#ffffff;fill-opacity:1;fill-rule:nonzero;stroke:none" id="path266"></path></g><g id="g268" transform="translate(31.0479,108.1328)"><path d="m 0,0 c -0.631,-0.527 -1.278,-1.207 -1.924,-2.022 -1.427,-1.801 -2.038,-3.638 -1.817,-5.46 0.22,-1.824 1.033,-3.303 2.417,-4.399 1.314,-1.041 2.818,-1.468 4.473,-1.268 1.656,0.198 3.22,1.214 4.651,3.021 0.656,0.829 1.335,1.989 2.017,3.448 -0.95,0.687 -1.709,1.255 -2.257,1.69 -0.748,0.593 -1.485,1.208 -2.19,1.83 L 3.727,-5.234 c 0.716,-0.403 1.34,-0.813 1.855,-1.221 0.527,-0.418 1.105,-0.81 1.716,-1.164 L 7.394,-7.675 7.339,-7.771 C 7.08,-8.222 6.824,-8.606 6.581,-8.914 5.696,-10.031 4.624,-10.63 3.394,-10.691 c -1.226,-0.063 -2.338,0.295 -3.311,1.065 -0.951,0.754 -1.54,1.689 -1.751,2.779 -0.213,1.096 0.142,2.236 1.052,3.385 0.512,0.647 1.191,1.307 2.021,1.961 z m 2.362,-13.42 c -1.394,0 -2.68,0.459 -3.825,1.365 -1.431,1.133 -2.271,2.662 -2.499,4.545 -0.228,1.884 0.399,3.777 1.863,5.625 0.684,0.864 1.37,1.577 2.038,2.123 L 0.02,0.304 1.733,-1.526 1.638,-1.602 c -0.86,-0.668 -1.559,-1.34 -2.08,-1.999 -0.869,-1.096 -1.207,-2.174 -1.008,-3.204 0.201,-1.037 0.763,-1.926 1.672,-2.646 0.928,-0.736 1.993,-1.077 3.16,-1.019 1.164,0.06 2.181,0.629 3.024,1.694 0.22,0.277 0.449,0.62 0.685,1.02 -0.585,0.346 -1.139,0.725 -1.647,1.127 -0.533,0.421 -1.185,0.847 -1.939,1.264 L 3.39,-5.302 5.342,-2.838 5.43,-2.915 c 0.729,-0.647 1.492,-1.286 2.267,-1.9 0.561,-0.445 1.343,-1.029 2.325,-1.738 l 0.075,-0.053 -0.038,-0.083 C 9.355,-8.204 8.654,-9.407 7.975,-10.266 6.506,-12.12 4.892,-13.164 3.176,-13.37 2.901,-13.403 2.628,-13.42 2.362,-13.42" style="fill:#ffffff;fill-opacity:1;fill-rule:nonzero;stroke:none" id="path270"></path></g><g id="g272" transform="translate(44.4385,118.918)"><path d="m 0,0 c 1.171,-1.794 2.366,-3.571 3.587,-5.331 2.412,-3.477 2.094,-6.273 -0.954,-8.387 -1.507,-1.046 -2.909,-1.448 -4.205,-1.207 -1.296,0.241 -2.636,1.36 -4.021,3.355 -1.22,1.758 -2.446,3.471 -3.678,5.138 l 2.379,1.651 c 1.156,-1.821 2.303,-3.553 3.444,-5.198 0.999,-1.439 1.88,-2.291 2.643,-2.552 0.763,-0.262 1.553,-0.11 2.371,0.458 0.858,0.594 1.292,1.29 1.304,2.086 0.013,0.796 -0.486,1.922 -1.496,3.378 -1.108,1.596 -2.325,3.273 -3.651,5.029 z" style="fill:#ffffff;fill-opacity:1;fill-rule:nonzero;stroke:none" id="path274"></path></g><g id="g276" transform="translate(35.3262,112.4609)"><path d="m 0,0 c 1.205,-1.634 2.42,-3.332 3.611,-5.05 1.361,-1.962 2.69,-3.074 3.95,-3.308 1.26,-0.235 2.646,0.165 4.121,1.188 3.014,2.092 3.317,4.785 0.925,8.232 -1.193,1.721 -2.378,3.483 -3.525,5.239 L 6.993,4.852 c 1.295,-1.717 2.501,-3.379 3.584,-4.941 1.033,-1.489 1.529,-2.615 1.517,-3.443 -0.013,-0.83 -0.468,-1.562 -1.352,-2.175 -0.576,-0.4 -1.149,-0.603 -1.704,-0.603 -0.258,0 -0.516,0.044 -0.767,0.13 -0.793,0.273 -1.675,1.121 -2.698,2.595 -1.117,1.61 -2.256,3.327 -3.385,5.104 z m 8.28,-8.647 c -0.256,0 -0.511,0.023 -0.76,0.07 -1.32,0.245 -2.697,1.39 -4.091,3.4 -1.213,1.748 -2.45,3.477 -3.676,5.137 L -0.315,0.052 2.253,1.833 2.314,1.735 c 1.148,-1.808 2.306,-3.555 3.442,-5.193 0.98,-1.413 1.851,-2.258 2.588,-2.511 0.725,-0.25 1.486,-0.1 2.271,0.445 0.823,0.57 1.244,1.242 1.256,1.996 0.012,0.768 -0.484,1.882 -1.476,3.312 C 9.293,1.372 8.065,3.063 6.746,4.81 L 6.676,4.902 9.143,6.614 9.206,6.518 C 10.37,4.732 11.576,2.939 12.79,1.189 15.233,-2.332 14.903,-5.206 11.809,-7.353 10.57,-8.212 9.384,-8.647 8.28,-8.647" style="fill:#ffffff;fill-opacity:1;fill-rule:nonzero;stroke:none" id="path278"></path></g><g id="g280" transform="translate(56.2256,110.3711)"><path d="m 0,0 -2.678,-1.1 c -0.668,1.862 -1.451,3.886 -2.349,6.074 -0.884,2.151 -1.676,3.965 -2.378,5.441 l 2.677,1.1 C -4.199,9.995 -3.488,8.147 -2.596,5.972 -1.683,3.749 -0.817,1.759 0,0" style="fill:#ffffff;fill-opacity:1;fill-rule:nonzero;stroke:none" id="path282"></path></g><g id="g284" transform="translate(48.9707,120.7275)"><path d="m 0,0 c 0.688,-1.453 1.472,-3.249 2.33,-5.341 0.877,-2.134 1.654,-4.14 2.313,-5.968 l 2.462,1.011 C 6.306,-8.573 5.448,-6.599 4.557,-4.427 3.688,-2.313 2.983,-0.484 2.461,1.011 Z m 4.512,-11.603 -0.039,0.11 C 3.807,-9.641 3.018,-7.599 2.125,-5.425 1.246,-3.286 0.447,-1.457 -0.251,0.011 L -0.302,0.117 2.594,1.306 2.633,1.194 c 0.524,-1.51 1.241,-3.374 2.13,-5.536 0.908,-2.214 1.781,-4.221 2.593,-5.968 l 0.049,-0.105 z" style="fill:#ffffff;fill-opacity:1;fill-rule:nonzero;stroke:none" id="path286"></path></g><g id="g288" transform="translate(69.0977,113.2793)"><path d="m 0,0 -2.49,-0.428 c -0.044,0.258 -1.201,1.459 -3.473,3.604 -2.381,2.261 -3.788,3.846 -4.221,4.756 l -0.161,-0.028 c 0.404,-1.347 0.701,-2.576 0.893,-3.688 0.266,-1.552 0.638,-3.434 1.115,-5.648 l -2.48,-0.425 c -0.234,1.963 -0.551,4.111 -0.951,6.442 -0.394,2.292 -0.779,4.234 -1.156,5.825 l 2.994,0.514 c 0.057,-0.333 1.116,-1.519 3.175,-3.558 2.192,-2.165 3.493,-3.665 3.907,-4.499 l 0.151,0.026 c -0.402,1.373 -0.699,2.616 -0.889,3.727 -0.293,1.702 -0.64,3.441 -1.041,5.215 l 2.521,0.433 C -1.934,10.693 -1.646,8.735 -1.243,6.393 -0.837,4.03 -0.423,1.899 0,0" style="fill:#ffffff;fill-opacity:1;fill-rule:nonzero;stroke:none" id="path290"></path></g><g id="g292" transform="translate(56.3096,123.5996)"><path d="m 0,0 c 0.367,-1.564 0.747,-3.487 1.13,-5.717 0.391,-2.275 0.706,-4.405 0.937,-6.332 l 2.25,0.387 c -0.463,2.153 -0.83,4.016 -1.091,5.539 -0.189,1.101 -0.489,2.337 -0.89,3.675 l -0.036,0.12 0.368,0.063 0.036,-0.076 c 0.425,-0.891 1.838,-2.481 4.197,-4.722 2.633,-2.487 3.31,-3.267 3.466,-3.56 l 2.287,0.393 c -0.412,1.862 -0.822,3.975 -1.218,6.283 -0.391,2.278 -0.678,4.216 -0.852,5.764 L 8.296,1.425 c 0.389,-1.73 0.73,-3.446 1.016,-5.107 0.189,-1.102 0.488,-2.352 0.886,-3.714 L 10.233,-7.516 9.877,-7.577 9.84,-7.503 C 9.435,-6.684 8.127,-5.18 5.955,-3.033 3.51,-0.612 2.918,0.167 2.783,0.478 Z m 1.874,-12.308 -0.014,0.117 c -0.232,1.953 -0.551,4.119 -0.95,6.436 -0.391,2.28 -0.78,4.238 -1.154,5.818 l -0.027,0.116 3.22,0.553 0.019,-0.11 c 0.03,-0.173 0.477,-0.858 3.143,-3.497 2.004,-1.98 3.246,-3.38 3.781,-4.262 -0.355,1.245 -0.623,2.394 -0.799,3.418 -0.291,1.693 -0.641,3.445 -1.04,5.209 l -0.027,0.114 2.753,0.473 0.013,-0.118 c 0.172,-1.563 0.463,-3.537 0.863,-5.868 0.404,-2.353 0.822,-4.501 1.241,-6.387 l 0.026,-0.114 -2.715,-0.466 -0.019,0.109 C 10.165,-10.635 9.688,-10 6.749,-7.226 4.546,-5.133 3.196,-3.645 2.642,-2.694 2.999,-3.922 3.27,-5.062 3.445,-6.086 3.711,-7.632 4.086,-9.53 4.56,-11.729 l 0.024,-0.113 z" style="fill:#ffffff;fill-opacity:1;fill-rule:nonzero;stroke:none" id="path294"></path></g><g id="g296" transform="translate(82.0225,111.8359)"><path d="m 0,0 -2.504,0.34 c 0.035,0.259 -0.708,1.753 -2.23,4.48 -1.592,2.873 -2.458,4.808 -2.598,5.804 l -0.162,0.022 C -7.514,9.24 -7.599,7.979 -7.75,6.86 -7.962,5.301 -8.173,3.394 -8.383,1.139 l -2.493,0.339 c 0.367,1.943 0.71,4.086 1.027,6.429 0.314,2.306 0.53,4.274 0.648,5.905 l 3.011,-0.41 c -0.046,-0.335 0.607,-1.784 1.959,-4.347 1.44,-2.723 2.232,-4.545 2.375,-5.465 l 0.152,-0.021 c 0.029,1.431 0.119,2.704 0.271,3.823 0.233,1.712 0.424,3.473 0.574,5.286 L 1.675,12.334 C 1.367,10.78 1.054,8.826 0.733,6.471 0.411,4.096 0.166,1.939 0,0" style="fill:#ffffff;fill-opacity:1;fill-rule:nonzero;stroke:none" id="path298"></path></g><g id="g300" transform="translate(79.6221,112.2744)"><path d="m 0,0 2.3,-0.312 c 0.165,1.898 0.409,4.037 0.724,6.359 0.311,2.29 0.621,4.225 0.919,5.754 l -2.3,0.312 C 1.494,10.346 1.305,8.605 1.078,6.938 0.928,5.83 0.837,4.549 0.808,3.129 L 0.805,3.004 0.447,3.053 0.435,3.135 c -0.141,0.903 -0.937,2.729 -2.365,5.429 -1.604,3.044 -1.934,3.965 -1.97,4.302 l -2.798,0.38 C -6.818,11.644 -7.033,9.695 -7.338,7.454 -7.648,5.166 -7.987,3.04 -8.345,1.133 l 2.263,-0.307 c 0.205,2.193 0.414,4.079 0.622,5.611 0.15,1.108 0.236,2.376 0.255,3.772 l 0.002,0.126 0.37,-0.051 0.012,-0.083 C -4.685,9.223 -3.814,7.283 -2.236,4.436 -0.472,1.273 -0.062,0.326 0,0 m 2.501,-0.564 -2.73,0.371 0.015,0.109 C -0.196,0.049 -0.462,0.798 -2.431,4.328 -3.904,6.986 -4.744,8.811 -4.988,9.884 -5.016,8.605 -5.1,7.437 -5.239,6.407 -5.45,4.852 -5.664,2.929 -5.872,0.689 l -0.011,-0.115 -2.724,0.37 0.022,0.116 c 0.365,1.932 0.71,4.094 1.027,6.424 0.311,2.292 0.529,4.276 0.647,5.897 l 0.008,0.118 3.238,-0.44 -0.015,-0.111 c -0.024,-0.174 0.198,-0.962 1.948,-4.28 1.317,-2.49 2.081,-4.198 2.325,-5.199 0.036,1.295 0.125,2.471 0.264,3.499 0.231,1.7 0.424,3.476 0.574,5.281 L 1.439,12.365 4.207,11.989 4.185,11.874 C 3.879,10.332 3.563,8.361 3.244,6.017 2.923,3.65 2.677,1.476 2.511,-0.448 Z" style="fill:#ffffff;fill-opacity:1;fill-rule:nonzero;stroke:none" id="path302"></path></g><g id="g304" transform="translate(92.8955,109.4824)"><path d="m 0,0 -0.917,-1.895 -7.977,3.488 c 0.853,1.728 1.763,3.698 2.731,5.912 0.929,2.125 1.682,3.956 2.256,5.492 L 3.703,9.67 2.762,7.797 C 0.928,8.71 -0.751,9.5 -2.275,10.166 -2.568,9.327 -2.955,8.355 -3.438,7.252 -2.133,6.682 -0.722,6.103 0.793,5.517 l -0.8,-1.831 C -1.443,4.384 -2.827,5.023 -4.158,5.605 -4.677,4.42 -5.137,3.3 -5.538,2.244 -3.826,1.495 -1.98,0.747 0,0" style="fill:#ffffff;fill-opacity:1;fill-rule:nonzero;stroke:none" id="path306"></path></g><g id="g308" transform="translate(84.1533,111.1309)"><path d="M 0,0 7.771,-3.398 8.589,-1.71 C 6.661,-0.98 4.835,-0.239 3.159,0.494 L 3.062,0.536 3.1,0.635 C 3.499,1.686 3.965,2.818 4.482,4.001 L 4.526,4.104 4.629,4.059 C 5.921,3.494 7.283,2.864 8.68,2.188 L 9.388,3.807 C 7.92,4.375 6.531,4.945 5.26,5.502 L 5.157,5.546 5.202,5.648 c 0.479,1.095 0.869,2.073 1.159,2.907 l 0.04,0.113 0.11,-0.049 C 8.002,7.968 9.665,7.187 11.454,6.297 l 0.84,1.67 L 4.898,11.2 C 4.329,9.688 3.583,7.876 2.681,5.812 1.736,3.652 0.835,1.698 0,0 m 7.878,-3.688 -8.181,3.577 0.052,0.104 C 0.597,1.713 1.515,3.7 2.477,5.9 3.4,8.012 4.158,9.858 4.731,11.388 l 0.041,0.11 7.826,-3.422 -1.044,-2.077 -0.1,0.05 C 9.674,6.935 8.02,7.715 6.532,8.367 6.253,7.581 5.89,6.671 5.45,5.661 6.724,5.106 8.11,4.538 9.576,3.972 L 9.685,3.93 8.791,1.887 8.687,1.937 C 7.293,2.614 5.933,3.244 4.642,3.811 4.159,2.704 3.724,1.644 3.346,0.655 c 1.678,-0.732 3.507,-1.471 5.435,-2.2 l 0.115,-0.043 z" style="fill:#ffffff;fill-opacity:1;fill-rule:nonzero;stroke:none" id="path310"></path></g><g id="g312" transform="translate(102.2783,104.0957)"><path d="m 0,0 c -1.518,-1.976 -3.797,-1.796 -6.836,0.539 -1.032,0.794 -1.903,1.648 -2.611,2.562 l 1.696,1.384 c 0.659,-0.956 1.377,-1.733 2.156,-2.331 0.866,-0.665 1.547,-1.064 2.046,-1.199 0.499,-0.134 0.89,-0.017 1.174,0.353 0.295,0.383 0.365,0.844 0.21,1.381 -0.13,0.469 -0.522,1.252 -1.175,2.349 -0.59,1.001 -0.937,1.862 -1.044,2.587 -0.132,0.913 0.09,1.744 0.664,2.492 0.668,0.869 1.535,1.284 2.601,1.244 C -0.053,11.322 1.127,10.806 2.419,9.813 3.479,8.998 4.305,8.231 4.896,7.512 L 3.302,6.06 C 2.763,6.868 2.067,7.599 1.219,8.251 -0.057,9.231 -0.939,9.403 -1.429,8.767 -1.689,8.428 -1.752,8.039 -1.618,7.598 -1.498,7.217 -1.129,6.527 -0.511,5.529 0.146,4.47 0.543,3.554 0.68,2.781 0.859,1.751 0.634,0.824 0,0" style="fill:#ffffff;fill-opacity:1;fill-rule:nonzero;stroke:none" id="path314"></path></g><g id="g316" transform="translate(92.9863,107.1787)"><path d="m 0,0 c 0.687,-0.871 1.536,-1.696 2.524,-2.455 1.619,-1.244 3.032,-1.875 4.202,-1.875 0.973,0 1.807,0.442 2.478,1.315 0.61,0.794 0.832,1.701 0.658,2.695 C 9.729,0.435 9.332,1.346 8.687,2.388 8.058,3.402 7.691,4.087 7.568,4.481 7.423,4.957 7.492,5.385 7.774,5.752 c 0.214,0.278 0.5,0.419 0.85,0.419 0.515,0 1.153,-0.299 1.955,-0.915 0.817,-0.628 1.501,-1.337 2.035,-2.11 l 1.42,1.293 C 13.455,5.126 12.651,5.866 11.644,6.642 10.376,7.615 9.207,8.129 8.169,8.167 7.146,8.203 6.303,7.802 5.66,6.967 5.107,6.246 4.892,5.437 5.019,4.558 5.121,3.852 5.468,2.995 6.049,2.012 6.713,0.896 7.101,0.119 7.234,-0.364 7.398,-0.934 7.321,-1.432 7.005,-1.844 6.694,-2.247 6.258,-2.382 5.714,-2.235 5.196,-2.096 4.515,-1.697 3.629,-1.018 2.872,-0.436 2.162,0.324 1.519,1.24 Z m 6.726,-4.553 c -1.22,0 -2.679,0.647 -4.337,1.921 -1.035,0.795 -1.921,1.664 -2.632,2.581 L -0.31,0.035 1.564,1.565 1.633,1.466 c 0.648,-0.943 1.366,-1.718 2.132,-2.307 0.849,-0.652 1.525,-1.05 2.007,-1.18 0.456,-0.123 0.8,-0.021 1.056,0.313 0.276,0.357 0.338,0.777 0.193,1.283 C 6.894,0.034 6.502,0.815 5.856,1.898 5.262,2.907 4.905,3.791 4.799,4.526 4.662,5.466 4.893,6.333 5.484,7.102 6.172,7.997 7.074,8.435 8.178,8.39 9.263,8.35 10.475,7.82 11.779,6.817 12.84,6.002 13.68,5.222 14.273,4.499 L 14.341,4.418 12.573,2.807 12.501,2.915 C 11.971,3.71 11.278,4.437 10.443,5.08 9.232,6.01 8.403,6.204 7.951,5.616 7.712,5.305 7.656,4.955 7.78,4.547 7.896,4.177 8.266,3.489 8.876,2.505 9.536,1.438 9.942,0.501 10.081,-0.282 10.266,-1.34 10.03,-2.305 9.381,-3.15 8.666,-4.081 7.772,-4.553 6.726,-4.553" style="fill:#ffffff;fill-opacity:1;fill-rule:nonzero;stroke:none" id="path318"></path></g><g id="g320" transform="translate(109.3262,95.6104)"><path d="m 0,0 c -1.945,-1.558 -4.115,-0.84 -6.511,2.152 -0.814,1.017 -1.456,2.054 -1.926,3.11 l 1.978,0.941 c 0.412,-1.086 0.925,-2.012 1.538,-2.778 0.682,-0.852 1.249,-1.403 1.701,-1.652 0.453,-0.25 0.862,-0.228 1.225,0.062 0.378,0.303 0.556,0.733 0.533,1.292 -0.015,0.486 -0.208,1.341 -0.581,2.561 -0.335,1.113 -0.468,2.033 -0.398,2.761 0.089,0.919 0.502,1.673 1.239,2.263 0.855,0.684 1.796,0.881 2.822,0.589 C 2.646,11.008 3.668,10.226 4.687,8.953 5.522,7.91 6.141,6.969 6.544,6.129 L 4.65,5.098 C 4.318,6.012 3.818,6.887 3.149,7.723 2.144,8.979 1.327,9.356 0.7,8.854 0.367,8.588 0.213,8.225 0.238,7.765 0.264,7.365 0.458,6.607 0.82,5.492 1.206,4.307 1.373,3.322 1.322,2.539 1.252,1.496 0.812,0.649 0,0" style="fill:#ffffff;fill-opacity:1;fill-rule:nonzero;stroke:none" id="path322"></path></g><g id="g324" transform="translate(101.0361,100.8184)"><path d="m 0,0 c 0.46,-1.01 1.088,-2.014 1.866,-2.986 1.546,-1.931 3.008,-2.91 4.347,-2.91 0.689,0 1.365,0.26 2.008,0.775 0.782,0.626 1.213,1.453 1.281,2.46 0.05,0.765 -0.118,1.744 -0.497,2.91 -0.369,1.135 -0.562,1.888 -0.588,2.3 -0.027,0.497 0.143,0.895 0.504,1.184 0.198,0.16 0.418,0.24 0.652,0.24 0.567,0 1.205,-0.454 1.953,-1.389 C 12.17,1.78 12.665,0.928 13,0.049 l 1.688,0.919 C 14.289,1.772 13.685,2.683 12.89,3.676 11.891,4.924 10.878,5.701 9.88,5.985 8.894,6.267 7.98,6.076 7.157,5.417 6.448,4.85 6.046,4.114 5.96,3.23 5.892,2.521 6.024,1.605 6.354,0.513 6.733,-0.729 6.925,-1.576 6.938,-2.077 6.963,-2.67 6.77,-3.135 6.364,-3.459 5.968,-3.776 5.508,-3.803 5.017,-3.532 4.547,-3.273 3.979,-2.725 3.282,-1.853 2.686,-1.107 2.177,-0.201 1.771,0.843 Z m 6.213,-6.119 c -1.409,0 -2.931,1.008 -4.521,2.994 -0.815,1.019 -1.468,2.073 -1.94,3.134 L -0.292,0.107 1.893,1.147 1.935,1.034 C 2.341,-0.035 2.853,-0.96 3.456,-1.714 4.126,-2.55 4.687,-3.097 5.124,-3.338 5.537,-3.564 5.896,-3.55 6.225,-3.286 6.577,-3.004 6.737,-2.611 6.717,-2.085 6.703,-1.609 6.509,-0.758 6.141,0.448 5.803,1.569 5.667,2.513 5.738,3.252 5.83,4.197 6.261,4.984 7.018,5.591 7.897,6.295 8.885,6.501 9.94,6.2 10.984,5.902 12.035,5.1 13.063,3.814 13.9,2.77 14.529,1.812 14.934,0.969 L 14.979,0.874 12.88,-0.27 12.836,-0.147 C 12.51,0.751 12.011,1.623 11.353,2.445 10.659,3.312 10.061,3.75 9.573,3.75 9.388,3.75 9.22,3.688 9.06,3.56 8.754,3.314 8.616,2.988 8.64,2.563 8.664,2.175 8.858,1.42 9.217,0.318 9.604,-0.875 9.775,-1.882 9.724,-2.676 9.651,-3.747 9.192,-4.629 8.359,-5.295 7.677,-5.842 6.954,-6.119 6.213,-6.119" style="fill:#ffffff;fill-opacity:1;fill-rule:nonzero;stroke:none" id="path326"></path></g><g id="g328" transform="translate(28.6074,59.7041)"><path d="m 0,0 c -0.583,-0.021 -2.676,0.594 -6.279,1.845 -3.604,1.251 -5.641,1.867 -6.111,1.85 l -0.098,2.73 c 0.495,0.018 1.875,0.485 4.138,1.402 2.425,0.979 4.028,1.536 4.807,1.675 l -0.006,0.176 c -0.794,0.082 -2.443,0.484 -4.948,1.209 -2.34,0.675 -3.736,1.005 -4.188,0.988 l -0.1,2.792 c 0.589,0.021 2.661,0.776 6.216,2.264 3.555,1.488 5.514,2.239 5.878,2.252 l 0.118,-3.279 C -0.968,15.891 -2.527,15.44 -5.25,14.556 -7.974,13.671 -9.592,13.219 -10.105,13.2 l 0.005,-0.166 c 0.514,0.019 2.132,-0.344 4.855,-1.088 2.722,-0.744 4.34,-1.107 4.853,-1.089 L -0.285,7.911 C -0.755,7.894 -2.371,7.415 -5.133,6.473 -7.895,5.531 -9.454,5.054 -9.812,5.041 L -9.806,4.875 C -9.354,4.892 -7.809,4.566 -5.167,3.898 -2.526,3.23 -0.839,2.91 -0.105,2.937 Z" style="fill:#ffffff;fill-opacity:1;fill-rule:nonzero;stroke:none" id="path330"></path></g><g id="g332" transform="translate(16.3252,63.5068)"><path d="m 0,0 c 0.636,-0.058 2.616,-0.665 6.039,-1.854 3.366,-1.167 5.426,-1.785 6.128,-1.835 l -0.098,2.71 C 11.271,-0.974 9.641,-0.657 7.088,-0.012 4.531,0.634 2.991,0.962 2.511,0.962 L 2.369,0.958 2.355,1.346 2.467,1.35 c 0.345,0.012 1.907,0.492 4.646,1.425 2.613,0.891 4.178,1.362 4.769,1.435 L 11.783,6.944 C 11.163,6.971 9.598,7.328 7.008,8.036 4.374,8.756 2.764,9.121 2.222,9.121 L 2.075,9.117 2.062,9.505 2.173,9.509 c 0.501,0.017 2.124,0.471 4.825,1.349 2.552,0.83 4.061,1.271 4.596,1.344 l -0.11,3.05 C 11.065,15.16 9.685,14.67 5.756,13.025 2.35,11.6 0.335,10.857 -0.388,10.763 L -0.295,8.182 C 0.258,8.153 1.605,7.829 3.815,7.191 6.303,6.472 7.961,6.066 8.744,5.985 L 8.841,5.976 8.854,5.606 8.759,5.59 C 7.99,5.453 6.381,4.893 3.975,3.921 1.827,3.052 0.493,2.592 -0.091,2.521 Z m 12.252,-3.915 c -0.641,0 -2.696,0.605 -6.286,1.852 -3.527,1.224 -5.563,1.844 -6.054,1.844 h -0.107 l -0.024,0.108 -0.102,2.84 0.111,0.004 C 0.271,2.751 1.649,3.22 3.891,4.128 6.176,5.049 7.751,5.604 8.579,5.781 7.735,5.894 6.114,6.295 3.754,6.978 1.49,7.631 0.104,7.962 -0.368,7.962 l -0.141,-0.005 -0.109,3.015 0.111,0.004 c 0.573,0.02 2.652,0.779 6.178,2.255 3.6,1.507 5.535,2.247 5.916,2.26 l 0.111,0.004 0.126,-3.501 -0.111,-0.004 C 11.33,11.977 9.767,11.524 7.066,10.647 4.731,9.888 3.228,9.452 2.5,9.325 3.228,9.243 4.73,8.89 7.066,8.251 9.7,7.53 11.311,7.166 11.852,7.166 L 11.998,7.17 12.112,4.001 12.001,3.997 C 11.544,3.98 9.924,3.499 7.186,2.564 4.84,1.765 3.377,1.305 2.747,1.169 3.411,1.1 4.856,0.781 7.143,0.203 9.76,-0.458 11.456,-0.78 12.172,-0.755 l 0.111,0.004 0.114,-3.159 z" style="fill:#ffffff;fill-opacity:1;fill-rule:nonzero;stroke:none" id="path334"></path></g><g id="g336" transform="translate(27.4043,48.3281)"><path d="M 0,0 C 1.205,0.514 2.039,1.27 2.5,2.269 2.961,3.267 2.979,4.265 2.555,5.261 2.16,6.188 1.446,6.813 0.415,7.14 -0.617,7.465 -1.709,7.382 -2.863,6.891 -4.063,6.379 -4.895,5.622 -5.357,4.619 -5.819,3.616 -5.84,2.619 -5.418,1.629 -5.023,0.703 -4.31,0.077 -3.274,-0.247 -2.24,-0.571 -1.148,-0.489 0,0 m 1.37,-2.521 c -1.771,-0.754 -3.494,-0.783 -5.168,-0.086 -1.674,0.697 -2.886,1.924 -3.634,3.682 -0.714,1.676 -0.776,3.307 -0.186,4.892 0.589,1.586 1.708,2.73 3.358,3.433 1.772,0.754 3.494,0.784 5.168,0.086 C 2.582,8.79 3.793,7.562 4.542,5.804 5.256,4.128 5.319,2.498 4.733,0.914 4.146,-0.67 3.025,-1.815 1.37,-2.521" style="fill:#ffffff;fill-opacity:1;fill-rule:nonzero;stroke:none" id="path338"></path></g><g id="g340" transform="translate(26.5576,55.5508)"><path d="m 0,0 c -0.633,0 -1.296,-0.146 -1.974,-0.435 -1.168,-0.498 -1.987,-1.243 -2.435,-2.215 -0.447,-0.969 -0.467,-1.945 -0.061,-2.9 0.38,-0.89 1.078,-1.501 2.075,-1.814 0.4,-0.125 0.814,-0.189 1.231,-0.189 h 10e-4 c 0.631,0 1.292,0.146 1.966,0.433 1.174,0.5 1.996,1.244 2.442,2.212 0.445,0.965 0.463,1.941 0.054,2.903 -0.38,0.891 -1.076,1.502 -2.07,1.816 C 0.83,-0.063 0.417,0 0,0 m -1.163,-7.774 h -10e-4 c -0.44,0 -0.876,0.066 -1.297,0.198 -1.062,0.333 -1.807,0.985 -2.213,1.939 -0.432,1.016 -0.412,2.052 0.063,3.08 0.471,1.024 1.33,1.807 2.55,2.327 1.173,0.5 2.304,0.584 3.356,0.252 1.059,-0.334 1.803,-0.986 2.209,-1.94 C 3.938,-2.939 3.92,-3.977 3.447,-5.001 2.977,-6.021 2.116,-6.803 0.89,-7.325 0.188,-7.624 -0.502,-7.774 -1.163,-7.774 m 0.474,10.428 c -0.876,0 -1.778,-0.194 -2.68,-0.579 -1.613,-0.687 -2.724,-1.821 -3.299,-3.369 -0.576,-1.551 -0.514,-3.169 0.186,-4.81 0.733,-1.722 1.935,-2.941 3.574,-3.624 1.637,-0.681 3.345,-0.652 5.081,0.087 1.619,0.69 2.73,1.824 3.303,3.37 0.573,1.55 0.509,3.167 -0.19,4.809 C 4.553,0.26 3.351,1.479 1.712,2.161 0.926,2.488 0.117,2.654 -0.689,2.654 m 0.182,-13.097 c -0.837,0 -1.674,0.172 -2.487,0.51 -1.693,0.705 -2.937,1.965 -3.693,3.742 -0.722,1.695 -0.786,3.369 -0.189,4.974 0.597,1.609 1.748,2.784 3.42,3.496 1.79,0.763 3.56,0.792 5.254,0.087 C 3.491,1.661 4.734,0.402 5.491,-1.375 6.213,-3.07 6.278,-4.743 5.685,-6.348 5.09,-7.954 3.938,-9.131 2.26,-9.846 1.329,-10.242 0.398,-10.443 -0.507,-10.443" style="fill:#ffffff;fill-opacity:1;fill-rule:nonzero;stroke:none" id="path342"></path></g><g id="g344" transform="translate(36.7656,39.5801)"><path d="M 0,0 C 0.958,0.8 0.871,1.877 -0.261,3.233 -0.676,3.731 -1.076,4.143 -1.462,4.468 -2.16,3.787 -3.108,2.946 -4.308,1.945 -4.074,1.646 -3.873,1.396 -3.705,1.194 -2.3,-0.49 -1.064,-0.889 0,0 m -4.159,-8.524 -1.963,2.351 c 1.192,2.037 1.851,3.386 1.976,4.048 0.125,0.662 -0.116,1.358 -0.726,2.09 -0.256,0.306 -0.504,0.598 -0.743,0.876 -1.238,-1.033 -2.468,-2.1 -3.69,-3.199 l -1.842,2.208 c 1.511,1.144 3.18,2.478 5.004,4.001 1.753,1.462 3.22,2.745 4.4,3.846 L -0.596,6.322 C -0.463,6.164 -0.179,5.837 0.258,5.344 0.694,4.85 1.092,4.389 1.449,3.959 3.479,1.527 3.736,-0.318 2.225,-1.58 1.025,-2.581 -0.389,-2.584 -2.019,-1.59 l -0.108,-0.091 c 0.312,-0.647 0.323,-1.432 0.036,-2.355 -0.288,-0.923 -0.977,-2.419 -2.068,-4.488" style="fill:#ffffff;fill-opacity:1;fill-rule:nonzero;stroke:none" id="path346"></path></g><g id="g348" transform="translate(32.6123,41.5098)"><path d="m 0,0 c 0.203,-0.26 0.383,-0.482 0.533,-0.664 0.895,-1.071 1.721,-1.614 2.457,-1.614 0.379,0 0.746,0.146 1.092,0.433 0.453,0.379 0.654,0.809 0.613,1.315 C 4.654,-0.018 4.355,0.575 3.808,1.232 3.426,1.689 3.053,2.077 2.696,2.388 2.022,1.735 1.116,0.933 0,0 M 2.99,-2.501 H 2.989 c -0.804,0 -1.688,0.57 -2.626,1.694 -0.17,0.203 -0.373,0.456 -0.604,0.754 l -0.067,0.085 0.082,0.07 C 0.966,1.095 1.921,1.941 2.613,2.618 L 2.686,2.688 2.763,2.623 C 3.152,2.295 3.562,1.875 3.979,1.375 4.557,0.682 4.872,0.047 4.917,-0.513 4.964,-1.088 4.73,-1.593 4.225,-2.016 3.838,-2.337 3.423,-2.501 2.99,-2.501 m -4.823,-5.59 1.806,-2.165 c 1.038,1.979 1.705,3.433 1.983,4.323 0.277,0.891 0.268,1.657 -0.03,2.275 l -0.037,0.078 0.235,0.197 0.068,-0.042 c 1.58,-0.964 2.957,-0.966 4.115,0 0.731,0.611 1.026,1.34 0.901,2.231 C 7.082,-0.296 6.514,0.765 5.518,1.958 5.161,2.386 4.761,2.851 4.328,3.34 3.885,3.842 3.604,4.162 3.472,4.321 L 2.4,5.606 C 1.237,4.524 -0.215,3.257 -1.918,1.836 -3.695,0.353 -5.349,-0.971 -6.834,-2.098 l 1.694,-2.031 c 1.19,1.069 2.403,2.121 3.607,3.125 l 0.084,0.07 0.071,-0.083 c 0.239,-0.277 0.488,-0.569 0.744,-0.877 0.63,-0.754 0.882,-1.488 0.751,-2.181 -0.128,-0.673 -0.766,-1.987 -1.95,-4.016 m 1.848,-2.562 -2.119,2.539 0.04,0.067 c 1.179,2.017 1.839,3.367 1.962,4.014 0.119,0.624 -0.118,1.296 -0.702,1.997 -0.23,0.276 -0.454,0.54 -0.671,0.792 -1.203,-1.006 -2.414,-2.058 -3.601,-3.127 l -0.086,-0.077 -1.992,2.386 0.092,0.071 c 1.506,1.14 3.19,2.485 5.001,3.998 1.743,1.453 3.221,2.746 4.396,3.842 L 2.421,5.929 3.643,4.464 C 3.774,4.307 4.053,3.987 4.494,3.487 4.929,2.996 5.331,2.529 5.688,2.101 6.712,0.875 7.297,-0.224 7.429,-1.163 7.562,-2.123 7.233,-2.941 6.449,-3.596 5.245,-4.601 3.802,-4.63 2.178,-3.675 2.449,-4.324 2.446,-5.105 2.168,-5.999 1.88,-6.925 1.181,-8.441 0.092,-10.507 Z" style="fill:#ffffff;fill-opacity:1;fill-rule:nonzero;stroke:none" id="path350"></path></g><g id="g352" transform="translate(43.7422,25.2432)"><path d="m 0,0 -1.278,-1.605 -6.939,5.081 c 1.071,1.322 2.366,3.02 3.886,5.095 1.393,1.903 2.511,3.498 3.352,4.786 L 1.366,11.64 C 0.459,10.54 -0.726,8.993 -2.186,7 -3.301,5.477 -4.223,4.294 -4.95,3.451 -3.414,2.326 -1.765,1.176 0,0" style="fill:#ffffff;fill-opacity:1;fill-rule:nonzero;stroke:none" id="path354"></path></g><g id="g356" transform="translate(35.6855,28.7393)"><path d="m 0,0 6.758,-4.948 1.137,1.427 C 6.174,-2.373 4.541,-1.233 3.04,-0.135 L 2.943,-0.063 3.021,0.028 C 3.745,0.865 4.674,2.057 5.781,3.569 7.196,5.5 8.366,7.031 9.263,8.123 L 7.106,9.702 C 6.275,8.436 5.169,6.856 3.815,5.009 2.337,2.99 1.054,1.306 0,0 m 6.799,-5.254 -7.118,5.213 0.073,0.091 C 0.818,1.364 2.125,3.077 3.636,5.141 5.021,7.033 6.148,8.642 6.984,9.922 L 7.048,10.021 9.584,8.163 9.509,8.072 C 8.606,6.979 7.413,5.42 5.961,3.438 4.89,1.975 3.984,0.811 3.269,-0.026 4.77,-1.123 6.4,-2.259 8.118,-3.403 L 8.219,-3.47 Z" style="fill:#ffffff;fill-opacity:1;fill-rule:nonzero;stroke:none" id="path358"></path></g><g id="g360" transform="translate(55.9893,24.3271)"><path d="M 0,0 C 0.441,1.12 0.454,2.206 0.038,3.257 -0.379,4.307 -1.325,5.123 -2.801,5.705 -3.077,5.814 -3.466,5.937 -3.968,6.074 -4.364,4.882 -4.812,3.65 -5.314,2.378 c -0.549,-1.395 -1.063,-2.79 -1.54,-4.187 0.388,-0.24 0.791,-0.442 1.208,-0.606 1.379,-0.544 2.555,-0.558 3.527,-0.041 C -1.148,-1.938 -0.441,-1.12 0,0 M 2.776,-0.659 C 2.123,-2.316 0.969,-3.533 -0.687,-4.31 c -1.656,-0.777 -3.537,-0.75 -5.641,0.081 -0.95,0.374 -2.245,0.925 -3.887,1.653 0.778,1.729 1.604,3.699 2.475,5.911 0.838,2.123 1.51,3.951 2.017,5.483 L -4.038,8.154 C -3.762,8.046 -3.348,7.893 -2.795,7.695 -2.243,7.497 -1.883,7.366 -1.716,7.3 0.601,6.387 2.073,5.199 2.702,3.738 3.331,2.276 3.356,0.811 2.776,-0.659" style="fill:#ffffff;fill-opacity:1;fill-rule:nonzero;stroke:none" id="path362"></path></g><g id="g364" transform="translate(49.2705,22.5674)"><path d="m 0,0 c 0.357,-0.216 0.731,-0.401 1.113,-0.552 0.692,-0.272 1.337,-0.411 1.92,-0.411 0.55,0 1.059,0.123 1.514,0.365 0.942,0.502 1.639,1.309 2.068,2.399 C 7.044,2.889 7.057,3.956 6.653,4.976 6.25,5.991 5.316,6.794 3.877,7.361 3.625,7.461 3.271,7.574 2.823,7.699 2.436,6.538 1.993,5.327 1.508,4.097 0.973,2.738 0.465,1.36 0,0 M 3.034,-1.186 H 3.033 c -0.611,0 -1.284,0.144 -2.002,0.427 -0.421,0.166 -0.833,0.373 -1.224,0.616 l -0.076,0.046 0.03,0.084 c 0.473,1.391 0.992,2.801 1.54,4.192 0.498,1.261 0.95,2.503 1.345,3.69 L 2.679,7.97 2.78,7.941 C 3.283,7.804 3.68,7.678 3.958,7.568 5.458,6.978 6.434,6.133 6.86,5.058 7.285,3.984 7.272,2.861 6.822,1.72 6.373,0.579 5.643,-0.267 4.651,-0.794 4.164,-1.054 3.62,-1.186 3.034,-1.186 m -6.383,0.425 c 1.584,-0.701 2.856,-1.241 3.781,-1.605 2.065,-0.815 3.932,-0.843 5.552,-0.083 1.622,0.761 2.768,1.969 3.408,3.59 C 9.957,2.576 9.933,4.027 9.319,5.454 8.705,6.88 7.239,8.059 4.962,8.956 4.797,9.021 4.435,9.154 3.886,9.351 3.338,9.546 2.918,9.701 2.64,9.811 L 1.064,10.432 C 0.562,8.925 -0.104,7.117 -0.918,5.054 -1.769,2.896 -2.586,0.94 -3.349,-0.761 m 6.823,-2.464 c -0.978,0 -2.029,0.22 -3.124,0.652 -0.948,0.373 -2.256,0.929 -3.891,1.655 l -0.103,0.045 0.046,0.102 c 0.775,1.721 1.607,3.709 2.473,5.906 0.832,2.11 1.511,3.954 2.016,5.478 l 0.037,0.113 1.794,-0.708 C 2.998,9.909 3.415,9.755 3.961,9.56 4.512,9.362 4.876,9.229 5.043,9.163 7.378,8.243 8.885,7.024 9.523,5.542 10.161,4.06 10.187,2.551 9.599,1.06 8.938,-0.617 7.754,-1.865 6.079,-2.65 5.268,-3.031 4.391,-3.225 3.474,-3.225" style="fill:#ffffff;fill-opacity:1;fill-rule:nonzero;stroke:none" id="path366"></path></g><g id="g368" transform="translate(73.1504,24.6758)"><path d="m 0,0 c -0.02,1.248 -0.913,1.857 -2.679,1.829 -0.648,-0.011 -1.219,-0.063 -1.716,-0.16 0.092,-0.971 0.151,-2.236 0.176,-3.798 0.38,-0.007 0.7,-0.008 0.963,-0.003 C -1.062,-2.097 0.022,-1.386 0,0 m 4.021,-8.591 -3.063,-0.05 c -0.836,2.207 -1.473,3.568 -1.908,4.081 -0.437,0.514 -1.13,0.763 -2.082,0.747 -0.401,-0.006 -0.783,-0.015 -1.149,-0.028 0.027,-1.611 0.084,-3.238 0.172,-4.88 l -2.876,-0.047 c 0.059,1.896 0.07,4.032 0.031,6.409 -0.038,2.282 -0.114,4.228 -0.229,5.838 l 1.79,0.029 c 0.207,0.004 0.639,0.02 1.298,0.05 0.658,0.029 1.266,0.048 1.825,0.057 C 0.997,3.667 2.596,2.708 2.628,0.739 2.652,-0.822 1.767,-1.925 -0.03,-2.569 l 0.002,-0.141 c 0.7,-0.164 1.318,-0.648 1.855,-1.452 0.537,-0.804 1.269,-2.279 2.194,-4.429" style="fill:#ffffff;fill-opacity:1;fill-rule:nonzero;stroke:none" id="path370"></path></g><g id="g372" transform="translate(69.041,22.6563)"><path d="M 0,0 C 0.332,-0.005 0.615,-0.005 0.852,-0.001 2.99,0.033 4.021,0.694 3.998,2.018 3.979,3.176 3.179,3.738 1.548,3.738 L 1.433,3.737 C 0.837,3.728 0.3,3.681 -0.165,3.598 -0.081,2.664 -0.025,1.454 0,0 m 0.509,-0.227 c -0.186,0 -0.393,0.002 -0.62,0.006 l -0.108,0.002 -0.002,0.108 c -0.025,1.55 -0.084,2.825 -0.175,3.79 l -0.009,0.1 0.099,0.019 C 0.193,3.895 0.777,3.949 1.429,3.96 L 1.548,3.961 C 3.301,3.961 4.2,3.309 4.221,2.021 4.244,0.568 3.112,-0.187 0.855,-0.224 0.749,-0.226 0.634,-0.227 0.509,-0.227 M -2.854,5.39 c 0.11,-1.584 0.184,-3.511 0.22,-5.729 0.038,-2.316 0.029,-4.433 -0.027,-6.296 l 2.644,0.043 c -0.085,1.599 -0.14,3.203 -0.166,4.769 l -0.002,0.109 0.11,0.004 c 0.366,0.012 0.75,0.022 1.15,0.028 H 1.16 c 0.939,0 1.641,-0.264 2.084,-0.786 0.444,-0.522 1.066,-1.844 1.9,-4.04 l 2.818,0.045 c -0.887,2.051 -1.6,3.484 -2.117,4.259 -0.52,0.775 -1.121,1.248 -1.789,1.405 l -0.084,0.02 -0.005,0.307 0.074,0.028 C 5.805,0.187 6.65,1.234 6.626,2.757 6.595,4.669 5.06,5.574 1.941,5.523 1.389,5.515 0.775,5.495 0.119,5.466 -0.536,5.437 -0.974,5.42 -1.183,5.417 Z m -0.037,-12.251 0.004,0.117 c 0.059,1.887 0.07,4.041 0.031,6.402 -0.037,2.269 -0.114,4.231 -0.229,5.833 l -0.009,0.117 1.908,0.031 c 0.207,0.004 0.642,0.02 1.295,0.049 0.659,0.03 1.274,0.049 1.829,0.058 C 5.173,5.795 6.815,4.794 6.848,2.76 6.874,1.186 5.991,0.051 4.227,-0.613 4.902,-0.81 5.509,-1.303 6.029,-2.081 6.568,-2.887 7.31,-4.383 8.232,-6.527 L 8.298,-6.68 4.991,-6.733 4.964,-6.66 C 4.136,-4.476 3.5,-3.113 3.074,-2.612 2.675,-2.142 2.031,-1.903 1.16,-1.903 L 1.079,-1.904 C 0.719,-1.91 0.373,-1.919 0.042,-1.929 0.068,-3.495 0.126,-5.098 0.212,-6.695 l 0.007,-0.116 z" style="fill:#ffffff;fill-opacity:1;fill-rule:nonzero;stroke:none" id="path374"></path></g><g id="g376" transform="translate(88.9893,21.0146)"><path d="m 0,0 0.447,-2.022 -8.515,-2.244 c -0.397,1.854 -0.897,3.931 -1.502,6.23 -0.582,2.207 -1.121,4.079 -1.618,5.614 l 8.125,2.141 0.415,-2.021 c -2.028,-0.43 -3.855,-0.86 -5.483,-1.289 0.289,-0.825 0.584,-1.811 0.886,-2.957 1.394,0.367 2.877,0.793 4.447,1.278 L -2.297,2.829 C -3.874,2.479 -5.373,2.115 -6.794,1.741 -6.47,0.51 -6.14,-0.635 -5.804,-1.694 -3.976,-1.213 -2.041,-0.648 0,0" style="fill:#ffffff;fill-opacity:1;fill-rule:nonzero;stroke:none" id="path378"></path></g><g id="g380" transform="translate(77.9424,28.5156)"><path d="m 0,0 c 0.486,-1.513 1.019,-3.365 1.584,-5.509 0.591,-2.243 1.088,-4.302 1.479,-6.121 l 8.299,2.187 -0.397,1.798 C 8.975,-8.273 7.061,-8.832 5.271,-9.303 L 5.17,-9.33 5.138,-9.229 c -0.334,1.053 -0.668,2.21 -0.992,3.441 l -0.029,0.107 0.108,0.029 c 1.38,0.364 2.856,0.721 4.388,1.063 L 8.171,-2.911 C 6.647,-3.381 5.187,-3.799 3.831,-4.157 L 3.724,-4.186 3.695,-4.077 c -0.299,1.136 -0.596,2.128 -0.883,2.948 l -0.041,0.114 0.117,0.031 c 1.591,0.419 3.4,0.845 5.38,1.266 L 7.898,2.08 Z m 2.894,-11.904 -0.025,0.114 c -0.393,1.844 -0.898,3.938 -1.5,6.225 -0.578,2.193 -1.122,4.08 -1.617,5.608 L -0.284,0.155 8.069,2.355 8.529,0.11 8.422,0.088 C 6.451,-0.33 4.649,-0.753 3.061,-1.169 c 0.267,-0.776 0.543,-1.699 0.82,-2.744 1.357,0.359 2.815,0.778 4.336,1.248 l 0.11,0.035 0.56,-2.126 -0.114,-0.025 C 7.244,-5.121 5.77,-5.477 4.389,-5.839 c 0.303,-1.147 0.616,-2.23 0.928,-3.222 1.791,0.474 3.706,1.034 5.696,1.665 l 0.116,0.038 0.497,-2.246 z" style="fill:#ffffff;fill-opacity:1;fill-rule:nonzero;stroke:none" id="path382"></path></g><g id="g384" transform="translate(100.8701,27.2744)"><path d="m 0,0 0.89,-1.98 c -0.755,-0.66 -1.549,-1.219 -2.383,-1.679 -2.072,-1.142 -3.938,-1.492 -5.596,-1.049 -1.658,0.443 -2.897,1.409 -3.718,2.897 -0.85,1.543 -1.015,3.204 -0.494,4.981 0.522,1.776 1.784,3.218 3.79,4.323 0.738,0.406 1.478,0.714 2.221,0.924 L -4.558,6.339 C -5.386,6.154 -6.126,5.883 -6.778,5.523 -8.005,4.847 -8.723,3.991 -8.932,2.956 -9.141,1.92 -8.967,0.897 -8.41,-0.113 c 0.569,-1.033 1.418,-1.733 2.546,-2.099 1.127,-0.367 2.331,-0.197 3.612,0.509 0.749,0.413 1.5,0.98 2.252,1.703" style="fill:#ffffff;fill-opacity:1;fill-rule:nonzero;stroke:none" id="path386"></path></g><g id="g388" transform="translate(95.5098,35.5557)"><path d="m 0,0 c -0.699,-0.206 -1.404,-0.503 -2.097,-0.885 -1.969,-1.086 -3.226,-2.518 -3.737,-4.258 -0.51,-1.739 -0.347,-3.385 0.485,-4.895 0.801,-1.454 2.03,-2.411 3.65,-2.844 1.623,-0.433 3.476,-0.084 5.512,1.039 0.8,0.442 1.575,0.983 2.302,1.612 L 5.323,-8.47 c -0.719,-0.676 -1.445,-1.218 -2.161,-1.612 -0.855,-0.472 -1.691,-0.711 -2.483,-0.711 -0.413,0 -0.824,0.065 -1.218,0.193 -1.149,0.374 -2.027,1.098 -2.608,2.152 -0.568,1.029 -0.747,2.087 -0.534,3.144 0.215,1.065 0.958,1.953 2.209,2.643 0.626,0.346 1.341,0.614 2.128,0.8 z m -0.29,-13.286 c -0.503,0 -0.996,0.063 -1.467,0.189 -1.681,0.45 -2.955,1.443 -3.787,2.951 -0.861,1.564 -1.031,3.268 -0.504,5.066 0.527,1.798 1.821,3.274 3.844,4.39 0.741,0.408 1.496,0.721 2.244,0.933 L 0.141,0.271 0.949,-2.023 0.826,-2.051 c -0.813,-0.181 -1.551,-0.452 -2.19,-0.804 -1.192,-0.657 -1.898,-1.496 -2.099,-2.493 -0.202,-1.004 -0.03,-2.011 0.511,-2.993 0.553,-1.002 1.388,-1.691 2.482,-2.047 0.372,-0.121 0.759,-0.182 1.149,-0.182 0.754,0 1.553,0.229 2.376,0.683 0.737,0.407 1.486,0.973 2.228,1.686 l 0.113,0.109 0.99,-2.199 -0.062,-0.054 c -0.758,-0.662 -1.566,-1.231 -2.403,-1.692 -1.503,-0.829 -2.919,-1.249 -4.211,-1.249" style="fill:#ffffff;fill-opacity:1;fill-rule:nonzero;stroke:none" id="path390"></path></g><g id="g392" transform="translate(108.0176,39.002)"><path d="M 0,0 C -0.927,0.927 -1.939,1.417 -3.038,1.472 -4.137,1.525 -5.068,1.17 -5.834,0.404 -6.547,-0.309 -6.86,-1.204 -6.777,-2.282 c 0.084,-1.078 0.569,-2.062 1.456,-2.948 0.923,-0.922 1.935,-1.411 3.039,-1.464 1.102,-0.055 2.035,0.298 2.796,1.06 0.712,0.712 1.025,1.609 0.939,2.69 C 1.367,-1.864 0.883,-0.883 0,0 M 1.826,2.213 C 3.188,0.852 3.858,-0.735 3.838,-2.549 3.816,-4.361 3.131,-5.943 1.779,-7.295 0.492,-8.583 -0.997,-9.25 -2.688,-9.296 c -1.691,-0.046 -3.171,0.565 -4.439,1.833 -1.362,1.361 -2.033,2.948 -2.012,4.761 0.022,1.813 0.707,3.395 2.058,4.747 1.288,1.288 2.776,1.956 4.465,2.004 1.688,0.049 3.17,-0.564 4.442,-1.836" style="fill:#ffffff;fill-opacity:1;fill-rule:nonzero;stroke:none" id="path394"></path></g><g id="g396" transform="translate(104.7637,40.3672)"><path d="m 0,0 c -0.97,0 -1.812,-0.35 -2.502,-1.04 -0.685,-0.685 -0.991,-1.56 -0.91,-2.599 0.081,-1.047 0.559,-2.014 1.424,-2.878 0.897,-0.897 1.895,-1.379 2.965,-1.432 1.065,-0.054 1.977,0.293 2.711,1.028 0.685,0.685 0.991,1.561 0.908,2.603 -0.083,1.047 -0.561,2.015 -1.421,2.875 -0.903,0.901 -1.9,1.385 -2.965,1.438 C 0.14,-0.001 0.069,0 0,0 m 1.189,-8.177 v 0 c -0.074,0 -0.148,0.002 -0.223,0.006 -1.126,0.055 -2.174,0.559 -3.112,1.497 -0.902,0.902 -1.403,1.917 -1.488,3.018 -0.086,1.107 0.242,2.041 0.975,2.773 0.785,0.786 1.753,1.157 2.881,1.101 C 1.343,0.162 2.39,-0.344 3.333,-1.286 4.23,-2.184 4.73,-3.198 4.817,-4.301 4.905,-5.411 4.579,-6.345 3.846,-7.078 3.117,-7.807 2.224,-8.177 1.189,-8.177 M 0.821,2.575 c -0.059,0 -0.12,-0.001 -0.18,-0.003 -1.652,-0.047 -3.128,-0.71 -4.389,-1.971 -1.323,-1.324 -2.005,-2.895 -2.025,-4.669 -0.021,-1.774 0.644,-3.349 1.978,-4.681 1.241,-1.24 2.705,-1.845 4.357,-1.801 1.654,0.045 3.132,0.707 4.393,1.968 1.323,1.324 2.005,2.895 2.025,4.67 C 7.001,-2.139 6.335,-0.563 5.002,0.769 3.803,1.968 2.396,2.575 0.821,2.575 m -0.432,-13.35 c -1.64,0 -3.101,0.629 -4.341,1.869 -1.378,1.376 -2.065,3.005 -2.044,4.841 0.021,1.834 0.725,3.457 2.091,4.823 1.301,1.303 2.83,1.988 4.54,2.037 C 2.347,2.842 3.87,2.215 5.159,0.926 6.536,-0.45 7.224,-2.079 7.203,-3.915 7.182,-5.749 6.479,-7.372 5.112,-8.739 3.81,-10.042 2.281,-10.727 0.569,-10.772 c -0.06,-0.002 -0.121,-0.003 -0.18,-0.003" style="fill:#ffffff;fill-opacity:1;fill-rule:nonzero;stroke:none" id="path398"></path></g><g id="g400" transform="translate(112.6514,50.9482)"><path d="m 0,0 c -1.099,0.591 -2.066,0.109 -2.903,-1.446 -0.307,-0.572 -0.54,-1.096 -0.698,-1.575 0.892,-0.394 2.026,-0.96 3.401,-1.701 0.191,0.328 0.348,0.608 0.472,0.839 C 1.312,-1.951 1.221,-0.656 0,0 M 9.461,-0.682 8.01,-3.38 C 5.676,-3.033 4.178,-2.925 3.517,-3.055 2.855,-3.185 2.3,-3.669 1.849,-4.507 1.659,-4.859 1.48,-5.198 1.312,-5.523 2.732,-6.287 4.181,-7.03 5.657,-7.754 l -1.363,-2.533 c -1.625,0.975 -3.484,2.026 -5.578,3.152 -2.011,1.081 -3.747,1.965 -5.209,2.65 l 0.848,1.576 c 0.098,0.182 0.294,0.568 0.59,1.157 0.296,0.589 0.576,1.13 0.841,1.622 1.499,2.789 3.117,3.717 4.852,2.784 1.375,-0.74 1.905,-2.051 1.59,-3.934 l 0.124,-0.067 c 0.485,0.531 1.209,0.834 2.172,0.911 0.964,0.078 2.61,-0.004 4.937,-0.246" style="fill:#ffffff;fill-opacity:1;fill-rule:nonzero;stroke:none" id="path402"></path></g><g id="g404" transform="translate(109.1885,47.9873)"><path d="m 0,0 c 0.855,-0.382 1.938,-0.924 3.221,-1.611 0.165,0.284 0.304,0.533 0.417,0.742 C 4.145,0.073 4.38,0.867 4.336,1.49 4.293,2.103 3.99,2.552 3.41,2.863 2.371,3.422 1.46,2.953 0.657,1.462 0.375,0.937 0.154,0.446 0,0 M 3.305,-1.909 3.21,-1.858 c -1.366,0.735 -2.508,1.305 -3.393,1.696 l -0.092,0.041 0.032,0.096 C -0.084,0.458 0.153,0.994 0.462,1.567 1.324,3.172 2.367,3.677 3.516,3.059 4.159,2.713 4.51,2.19 4.558,1.506 4.604,0.84 4.361,0.006 3.833,-0.975 3.708,-1.208 3.548,-1.491 3.359,-1.816 Z m -6.181,0.434 c 1.437,-0.675 3.154,-1.55 5.107,-2.6 2.042,-1.099 3.886,-2.14 5.483,-3.097 l 1.253,2.33 C 7.53,-4.136 6.103,-3.402 4.724,-2.66 l -0.097,0.052 0.05,0.096 c 0.168,0.326 0.346,0.665 0.537,1.018 0.465,0.865 1.052,1.373 1.744,1.51 0.669,0.131 2.156,0.026 4.454,-0.313 l 1.335,2.483 C 10.525,2.411 8.925,2.489 7.996,2.414 7.066,2.34 6.359,2.045 5.897,1.539 L 5.839,1.475 5.567,1.62 5.581,1.699 C 5.89,3.547 5.389,4.796 4.047,5.517 3.631,5.74 3.218,5.854 2.818,5.854 1.612,5.854 0.444,4.819 -0.653,2.778 -0.917,2.288 -1.199,1.743 -1.492,1.159 -1.787,0.571 -1.986,0.181 -2.084,-0.001 Z M 7.8,-7.482 7.7,-7.422 c -1.617,0.971 -3.492,2.03 -5.574,3.151 -1.998,1.075 -3.749,1.964 -5.203,2.646 l -0.107,0.05 0.904,1.679 c 0.096,0.18 0.295,0.569 0.589,1.155 0.294,0.586 0.577,1.133 0.841,1.625 C 0.675,5.718 2.373,6.67 4.152,5.713 5.54,4.967 6.1,3.644 5.818,1.778 6.319,2.272 7.046,2.562 7.979,2.636 8.946,2.714 10.611,2.63 12.936,2.39 L 13.101,2.372 11.533,-0.54 11.457,-0.528 C 9.151,-0.187 7.642,-0.077 7.001,-0.203 6.377,-0.325 5.842,-0.796 5.409,-1.599 5.239,-1.916 5.078,-2.222 4.925,-2.517 6.306,-3.257 7.732,-3.989 9.169,-4.693 l 0.103,-0.051 z" style="fill:#ffffff;fill-opacity:1;fill-rule:nonzero;stroke:none" id="path406"></path></g><g id="g408" transform="translate(119.1982,63.7754)"><path d="m 0,0 c -1.178,0.252 -2.25,0.086 -3.218,-0.497 -0.968,-0.584 -1.618,-1.651 -1.949,-3.203 -0.062,-0.29 -0.119,-0.695 -0.172,-1.212 1.241,-0.194 2.53,-0.435 3.867,-0.72 1.466,-0.313 2.927,-0.59 4.382,-0.83 0.174,0.422 0.308,0.852 0.401,1.29 0.31,1.45 0.129,2.612 -0.54,3.485 C 2.102,-0.813 1.178,-0.251 0,0 M 0.194,2.848 C 1.937,2.476 3.326,1.537 4.364,0.031 5.402,-1.474 5.686,-3.333 5.213,-5.546 5,-6.545 4.669,-7.913 4.221,-9.651 c -1.834,0.483 -3.912,0.972 -6.238,1.468 -2.232,0.478 -4.145,0.84 -5.741,1.089 l 0.378,1.771 c 0.063,0.29 0.146,0.723 0.249,1.302 0.105,0.577 0.175,0.953 0.213,1.128 0.52,2.436 1.448,4.084 2.787,4.945 1.338,0.86 2.779,1.126 4.325,0.796" style="fill:#ffffff;fill-opacity:1;fill-rule:nonzero;stroke:none" id="path410"></path></g><g id="g412" transform="translate(113.9805,58.957)"><path d="M 0,0 C 1.208,-0.191 2.476,-0.429 3.77,-0.705 5.199,-1.01 6.642,-1.284 8.059,-1.52 8.213,-1.132 8.334,-0.732 8.42,-0.33 8.722,1.08 8.546,2.223 7.9,3.064 7.251,3.912 6.34,4.466 5.194,4.71 4.051,4.954 2.996,4.792 2.057,4.226 1.121,3.661 0.482,2.608 0.159,1.095 0.103,0.83 0.05,0.462 0,0 M 8.197,-1.768 8.11,-1.753 c -1.449,0.238 -2.924,0.519 -4.387,0.83 -1.327,0.284 -2.626,0.526 -3.862,0.719 l -0.104,0.017 0.011,0.105 c 0.053,0.519 0.112,0.931 0.174,1.224 0.336,1.575 1.009,2.677 2,3.274 C 2.93,5.012 4.041,5.184 5.241,4.928 6.439,4.672 7.394,4.09 8.077,3.199 8.765,2.304 8.953,1.101 8.638,-0.377 8.543,-0.82 8.406,-1.261 8.231,-1.686 Z M -2.406,-2.184 c 1.569,-0.248 3.463,-0.608 5.631,-1.071 2.268,-0.484 4.332,-0.97 6.133,-1.442 0.432,1.678 0.756,3.021 0.963,3.993 C 10.785,1.467 10.506,3.314 9.49,4.787 8.474,6.261 7.094,7.193 5.389,7.558 3.88,7.879 2.454,7.617 1.146,6.776 -0.159,5.937 -1.081,4.297 -1.592,1.902 -1.629,1.729 -1.7,1.351 -1.804,0.777 -1.907,0.201 -1.991,-0.238 -2.053,-0.527 Z M 9.519,-4.97 9.41,-4.94 c -1.824,0.48 -3.921,0.974 -6.232,1.467 -2.217,0.474 -4.147,0.839 -5.735,1.087 l -0.117,0.019 0.403,1.886 c 0.062,0.287 0.145,0.723 0.249,1.297 0.103,0.577 0.175,0.957 0.212,1.133 0.525,2.454 1.479,4.141 2.836,5.015 1.357,0.872 2.842,1.145 4.41,0.811 C 7.197,7.398 8.624,6.436 9.674,4.913 10.725,3.389 11.016,1.482 10.539,-0.751 10.327,-1.746 9.993,-3.129 9.546,-4.861 Z" style="fill:#ffffff;fill-opacity:1;fill-rule:nonzero;stroke:none" id="path414"></path></g><g id="g416" transform="translate(122.0879,78.3311)"><path d="M 0,0 C 2.449,0.127 3.774,-1.745 3.976,-5.616 4.044,-6.933 3.964,-8.163 3.734,-9.308 L 1.613,-8.91 c 0.293,1.134 0.413,2.197 0.362,3.189 -0.058,1.102 -0.196,1.89 -0.415,2.362 -0.219,0.472 -0.558,0.696 -1.015,0.672 -0.476,-0.025 -0.865,-0.273 -1.167,-0.745 -0.268,-0.407 -0.602,-1.222 -1.003,-2.445 -0.369,-1.111 -0.79,-1.944 -1.264,-2.501 -0.597,-0.701 -1.36,-1.076 -2.287,-1.124 -1.077,-0.057 -1.942,0.339 -2.596,1.186 -0.653,0.846 -1.023,2.092 -1.109,3.74 -0.07,1.349 -0.025,2.488 0.134,3.416 l 2.105,-0.275 c -0.258,-0.945 -0.36,-1.96 -0.303,-3.041 0.085,-1.626 0.521,-2.418 1.31,-2.377 0.42,0.022 0.752,0.229 0.995,0.622 0.208,0.342 0.488,1.079 0.836,2.21 0.371,1.2 0.802,2.106 1.29,2.719 C -1.858,-0.487 -1.021,-0.054 0,0" style="fill:#ffffff;fill-opacity:1;fill-rule:nonzero;stroke:none" id="path418"></path></g><g id="g420" transform="translate(113.4326,77.0469)"><path d="m 0,0 c -0.143,-0.896 -0.181,-2.002 -0.114,-3.286 0.085,-1.616 0.449,-2.854 1.086,-3.678 0.627,-0.813 1.468,-1.197 2.502,-1.142 0.89,0.045 1.633,0.411 2.208,1.085 0.462,0.542 0.88,1.371 1.243,2.463 0.408,1.244 0.74,2.052 1.015,2.472 0.321,0.5 0.743,0.768 1.254,0.795 0.503,0.025 0.883,-0.223 1.122,-0.737 0.227,-0.49 0.367,-1.276 0.425,-2.403 0.05,-0.965 -0.062,-2.01 -0.336,-3.107 l 1.897,-0.356 c 0.21,1.101 0.284,2.297 0.218,3.556 C 12.323,-0.556 11.025,1.295 8.661,1.173 7.678,1.122 6.859,0.697 6.229,-0.088 5.75,-0.687 5.323,-1.589 4.958,-2.771 4.603,-3.92 4.326,-4.651 4.11,-5.005 3.848,-5.429 3.483,-5.656 3.026,-5.68 3.006,-5.681 2.984,-5.682 2.964,-5.682 H 2.963 c -0.819,0 -1.278,0.836 -1.364,2.485 -0.054,1.041 0.039,2.034 0.274,2.953 z m 3.281,-8.335 c -1.017,0 -1.853,0.416 -2.486,1.234 -0.664,0.862 -1.045,2.141 -1.131,3.803 -0.07,1.352 -0.025,2.51 0.134,3.441 L -0.184,0.248 2.154,-0.056 2.121,-0.18 c -0.255,-0.93 -0.355,-1.941 -0.3,-3.006 0.08,-1.546 0.485,-2.308 1.195,-2.272 0.383,0.021 0.68,0.207 0.905,0.569 0.202,0.333 0.479,1.068 0.824,2.184 0.373,1.208 0.814,2.136 1.31,2.757 0.673,0.837 1.546,1.289 2.594,1.344 2.512,0.129 3.889,-1.796 4.093,-5.723 0.069,-1.319 -0.013,-2.569 -0.243,-3.718 l -0.021,-0.108 -2.347,0.439 0.03,0.115 c 0.288,1.119 0.408,2.18 0.358,3.157 -0.056,1.083 -0.193,1.863 -0.405,2.32 C 9.913,-1.69 9.617,-1.49 9.206,-1.514 8.765,-1.537 8.411,-1.764 8.127,-2.207 7.865,-2.605 7.532,-3.42 7.136,-4.628 6.764,-5.747 6.332,-6.602 5.851,-7.166 5.235,-7.888 4.439,-8.279 3.485,-8.329 3.416,-8.333 3.348,-8.335 3.281,-8.335" style="fill:#ffffff;fill-opacity:1;fill-rule:nonzero;stroke:none" id="path422"></path></g><g id="g424" transform="translate(109.1328,70.8652)"><path d="m 0,0 c 0,-21.135 -17.133,-38.268 -38.268,-38.268 -21.134,0 -38.267,17.133 -38.267,38.268 0,21.135 17.133,38.268 38.267,38.268 C -17.133,38.268 0,21.135 0,0" style="fill:#ffffff;fill-opacity:1;fill-rule:evenodd;stroke:none" id="path426"></path></g><g id="g428" transform="translate(70.8652,102.2012)"><path d="m 0,0 4.164,-8.438 9.312,-1.352 -6.739,-6.567 1.591,-9.274 -8.328,4.378 -8.328,-4.378 1.591,9.274 -6.739,6.567 9.312,1.352 z" style="fill:#cf9800;fill-opacity:1;fill-rule:evenodd;stroke:none" id="path430"></path></g><g id="g432" transform="translate(92.2607,73.4238)"><path d="m 0,0 c -1.409,0.037 -21.391,0 -21.396,0 -0.004,0 -19.987,0.037 -21.395,0 -1.409,-0.037 -0.928,-1.001 -0.928,-1.001 0,0 0.446,-2.226 0.742,-3.226 0.297,-1.002 1.335,-1.002 1.335,-1.002 h 20.246 20.247 c 0,0 1.038,0 1.335,1.002 0.296,1 0.741,3.226 0.741,3.226 0,0 0.482,0.964 -0.927,1.001" style="fill:#00284c;fill-opacity:1;fill-rule:evenodd;stroke:none" id="path434"></path></g><g id="g436" transform="translate(88.7012,66.8975)"><path d="m 0,0 h -18.281 -18.281 c 0,0 -0.705,0.148 -0.501,-0.537 0.205,-0.687 0.427,-1.484 0.427,-1.484 0,0 0.074,-0.5 0.797,-0.482 0.723,0.019 17.558,0 17.558,0 0,0 16.835,0.019 17.557,0 0.724,-0.018 0.798,0.482 0.798,0.482 0,0 0.223,0.797 0.426,1.484 C 0.704,0.148 0,0 0,0" style="fill:#00284c;fill-opacity:1;fill-rule:evenodd;stroke:none" id="path438"></path></g><g id="g440" transform="translate(62.8516,39.8164)"><path d="M 0,0 C 0.958,-0.227 2.025,-0.427 3.205,-0.579 V 22.168 C 2.213,22.015 1.125,21.812 0,21.543 Z" style="fill:#00284c;fill-opacity:1;fill-rule:evenodd;stroke:none" id="path442"></path></g><g id="g444" transform="translate(75.6729,39.2373)"><path d="M 0,0 C 1.181,0.152 2.248,0.353 3.206,0.579 V 22.122 C 2.08,22.391 0.993,22.594 0,22.747 Z" style="fill:#00284c;fill-opacity:1;fill-rule:evenodd;stroke:none" id="path446"></path></g><g id="g448" transform="translate(59.6465,60.417)"><path d="M 0,0 C -1.103,-0.393 -2.188,-0.858 -3.206,-1.418 V -18.03 c 0,0 1.052,-0.781 3.206,-1.599 z" style="fill:#00284c;fill-opacity:1;fill-rule:evenodd;stroke:none" id="path450"></path></g><g id="g452" transform="translate(72.4678,62.3584)"><path d="m 0,0 c -0.997,0.078 -1.603,0.09 -1.603,0.09 0,0 -0.606,-0.012 -1.602,-0.09 v -23.387 c 0.518,-0.02 1.051,-0.033 1.602,-0.033 0.551,0 1.084,0.013 1.603,0.033 z" style="fill:#00284c;fill-opacity:1;fill-rule:evenodd;stroke:none" id="path454"></path></g><g id="g456" transform="translate(82.084,60.417)"><path d="m 0,0 v -19.629 c 2.154,0.818 3.206,1.599 3.206,1.599 V -1.418 C 2.188,-0.858 1.103,-0.393 0,0" style="fill:#00284c;fill-opacity:1;fill-rule:evenodd;stroke:none" id="path458"></path></g></g></g></g></svg>
