
<svg xmlns="http://www.w3.org/2000/svg" xmlns:xlink="http://www.w3.org/1999/xlink" width="2483pt" height="192pt" viewBox="0 0 2483 192" version="1.1">
<g id="surface1">
<path style="stroke:none;fill-rule:nonzero;fill:rgb(0%,0%,0%);fill-opacity:1" d="M 33.542969 174.265625 L 33.542969 184.050781 C 33.542969 188.941406 31.097656 190.777344 24.984375 190.777344 C 18.871094 190.777344 16.425781 188.941406 16.425781 184.050781 L 16.425781 174.265625 L 15.203125 173.042969 L 22.539062 173.042969 L 21.316406 174.265625 L 21.316406 184.050781 C 21.316406 186.496094 22.539062 187.109375 24.984375 187.109375 C 27.429688 187.109375 28.652344 185.886719 28.652344 184.050781 L 28.652344 174.265625 L 27.429688 173.042969 L 34.765625 173.042969 Z M 33.542969 174.265625 "></path>
<path style="stroke:none;fill-rule:nonzero;fill:rgb(0%,0%,0%);fill-opacity:1" d="M 62.273438 174.265625 L 62.273438 190.777344 L 58.605469 190.777344 L 48.828125 180.382812 L 48.828125 189.554688 L 50.050781 190.777344 L 43.9375 190.777344 L 44.546875 189.554688 L 44.546875 174.878906 L 43.324219 173.65625 L 48.828125 173.65625 L 57.996094 184.050781 L 57.996094 174.878906 L 56.773438 173.65625 L 62.886719 173.65625 Z M 62.273438 174.265625 "></path>
<path style="stroke:none;fill-rule:nonzero;fill:rgb(0%,0%,0%);fill-opacity:1" d="M 73.277344 190.777344 L 74.5 189.554688 L 74.5 174.878906 L 73.277344 173.65625 L 80.613281 173.65625 L 79.390625 174.878906 L 79.390625 189.554688 L 80.613281 190.777344 Z M 73.277344 190.777344 "></path>
<path style="stroke:none;fill-rule:nonzero;fill:rgb(0%,0%,0%);fill-opacity:1" d="M 99.566406 190.777344 L 95.898438 190.777344 L 87.949219 173.042969 L 95.285156 173.042969 L 94.0625 174.265625 L 98.34375 184.050781 L 102.621094 174.265625 L 101.398438 173.042969 L 107.511719 173.042969 Z M 99.566406 190.777344 "></path>
<path style="stroke:none;fill-rule:nonzero;fill:rgb(0%,0%,0%);fill-opacity:1" d="M 114.847656 190.777344 L 116.070312 189.554688 L 116.070312 174.878906 L 114.847656 173.65625 L 131.355469 173.65625 L 131.355469 178.546875 L 130.132812 176.714844 L 120.960938 176.714844 L 120.960938 180.382812 L 126.464844 180.382812 L 127.6875 179.160156 L 127.6875 184.664062 L 126.464844 183.441406 L 120.960938 183.441406 L 120.960938 187.109375 L 130.132812 187.109375 L 131.355469 185.886719 L 131.355469 190.777344 Z M 114.847656 190.777344 "></path>
<path style="stroke:none;fill-rule:nonzero;fill:rgb(0%,0%,0%);fill-opacity:1" d="M 153.359375 179.160156 C 153.167969 180.667969 151.816406 181.75 150.304688 181.605469 L 147.246094 181.605469 L 147.246094 177.324219 L 151.527344 177.324219 C 152.136719 176.714844 153.359375 177.324219 153.359375 179.160156 Z M 159.472656 190.777344 L 154.582031 184.050781 C 156.949219 183.191406 158.613281 181.054688 158.863281 178.546875 C 158.863281 175.492188 157.027344 173.042969 152.136719 173.042969 L 141.132812 173.042969 L 142.355469 174.265625 L 142.355469 189.554688 L 141.132812 190.777344 L 148.46875 190.777344 L 147.246094 189.554688 L 147.246094 184.664062 L 149.691406 184.664062 L 153.359375 189.554688 L 152.136719 190.777344 Z M 159.472656 190.777344 "></path>
<path style="stroke:none;fill-rule:nonzero;fill:rgb(0%,0%,0%);fill-opacity:1" d="M 177.203125 191.386719 C 174.90625 191.394531 172.625 190.980469 170.476562 190.164062 L 169.253906 192 L 169.253906 185.273438 C 171.652344 186.757812 174.386719 187.597656 177.203125 187.71875 C 177.8125 187.71875 179.648438 187.71875 179.648438 186.496094 C 179.648438 185.273438 177.203125 184.664062 174.757812 184.050781 C 171.089844 182.828125 169.253906 181.605469 169.253906 177.9375 C 169.253906 175.492188 171.089844 173.042969 177.203125 173.042969 C 179.097656 173.089844 180.96875 173.507812 182.703125 174.265625 L 183.925781 173.042969 L 183.925781 179.160156 C 181.636719 178.042969 179.136719 177.421875 176.589844 177.324219 C 175.367188 177.324219 174.144531 177.9375 174.144531 178.546875 C 174.144531 179.160156 177.203125 180.382812 179.035156 180.992188 C 182.09375 182.214844 184.539062 183.441406 184.539062 186.496094 C 184.539062 189.554688 182.09375 191.386719 177.203125 191.386719 Z M 177.203125 191.386719 "></path>
<path style="stroke:none;fill-rule:nonzero;fill:rgb(0%,0%,0%);fill-opacity:1" d="M 205.324219 184.664062 L 199.210938 184.664062 L 202.265625 178.546875 Z M 213.882812 190.777344 L 205.324219 173.042969 L 199.210938 173.042969 L 199.820312 174.265625 L 191.875 190.777344 L 198.597656 190.777344 L 197.375 189.554688 L 197.988281 187.71875 L 206.546875 187.71875 L 207.15625 189.554688 L 205.933594 190.777344 Z M 213.882812 190.777344 "></path>
<path style="stroke:none;fill-rule:nonzero;fill:rgb(0%,0%,0%);fill-opacity:1" d="M 221.21875 190.777344 L 222.4375 189.554688 L 222.4375 174.878906 L 221.21875 173.65625 L 228.550781 173.65625 L 227.328125 174.878906 L 227.328125 187.71875 L 235.886719 187.71875 L 237.109375 186.496094 L 237.109375 191.386719 L 221.21875 191.386719 Z M 221.21875 190.777344 "></path>
<path style="stroke:none;fill-rule:nonzero;fill:rgb(0%,0%,0%);fill-opacity:1" d="M 276.847656 190.777344 L 278.070312 189.554688 L 278.070312 180.992188 L 273.179688 190.777344 L 270.734375 190.777344 L 265.230469 180.992188 L 265.230469 189.554688 L 266.453125 190.777344 L 260.339844 190.777344 L 261.5625 189.554688 L 261.5625 174.878906 L 260.339844 173.65625 L 266.453125 173.65625 L 271.957031 184.664062 L 277.457031 173.65625 L 283.570312 173.65625 L 282.960938 174.265625 L 282.960938 189.554688 L 284.183594 190.777344 Z M 276.847656 190.777344 "></path>
<path style="stroke:none;fill-rule:nonzero;fill:rgb(0%,0%,0%);fill-opacity:1" d="M 311.691406 174.265625 L 311.691406 184.050781 C 311.691406 188.941406 309.246094 190.777344 303.132812 190.777344 C 297.019531 190.777344 294.574219 188.941406 294.574219 184.050781 L 294.574219 174.265625 L 293.351562 173.042969 L 300.6875 173.042969 L 299.464844 174.265625 L 299.464844 184.050781 C 299.464844 186.496094 300.6875 187.109375 303.132812 187.109375 C 305.578125 187.109375 306.800781 185.886719 306.800781 184.050781 L 306.800781 174.265625 L 305.578125 173.042969 L 312.914062 173.042969 Z M 311.691406 174.265625 "></path>
<path style="stroke:none;fill-rule:nonzero;fill:rgb(0%,0%,0%);fill-opacity:1" d="M 329.417969 191.386719 C 327.121094 191.394531 324.84375 190.980469 322.695312 190.164062 L 321.472656 192 L 321.472656 185.273438 C 323.867188 186.757812 326.605469 187.597656 329.417969 187.71875 C 330.03125 187.71875 331.863281 187.71875 331.863281 186.496094 C 331.863281 185.273438 329.417969 184.664062 326.972656 184.050781 C 323.304688 182.828125 321.472656 181.605469 321.472656 177.9375 C 321.472656 175.492188 323.304688 173.042969 329.417969 173.042969 C 331.503906 173.15625 333.5625 173.566406 335.53125 174.265625 L 336.753906 173.042969 L 336.753906 179.160156 C 334.464844 178.042969 331.964844 177.421875 329.417969 177.324219 C 328.195312 177.324219 326.972656 177.9375 326.972656 178.546875 C 326.972656 179.160156 330.03125 180.382812 331.863281 180.992188 C 334.921875 182.214844 337.367188 183.441406 337.367188 186.496094 C 337.367188 189.554688 334.921875 191.386719 329.417969 191.386719 Z M 329.417969 191.386719 "></path>
<path style="stroke:none;fill-rule:nonzero;fill:rgb(0%,0%,0%);fill-opacity:1" d="M 346.535156 190.777344 L 347.757812 189.554688 L 347.757812 174.878906 L 346.535156 173.65625 L 353.871094 173.65625 L 352.648438 174.878906 L 352.648438 189.554688 L 353.871094 190.777344 Z M 346.535156 190.777344 "></path>
<path style="stroke:none;fill-rule:nonzero;fill:rgb(0%,0%,0%);fill-opacity:1" d="M 372.824219 191.386719 C 367.320312 191.386719 362.429688 188.941406 362.429688 182.214844 C 362.464844 179.578125 363.613281 177.074219 365.59375 175.328125 C 367.574219 173.578125 370.199219 172.75 372.824219 173.042969 C 374.71875 173.089844 376.585938 173.507812 378.324219 174.265625 L 379.546875 173.042969 L 379.546875 179.160156 C 377.753906 177.917969 375.613281 177.277344 373.433594 177.324219 C 369.765625 177.324219 368.542969 179.769531 368.542969 182.828125 C 368.433594 184.320312 368.976562 185.785156 370.035156 186.839844 C 371.089844 187.898438 372.554688 188.441406 374.046875 188.332031 C 376.226562 188.394531 378.371094 187.75 380.160156 186.496094 L 380.160156 189.554688 C 377.816406 190.523438 375.34375 191.140625 372.824219 191.386719 Z M 372.824219 191.386719 "></path>
<path style="stroke:none;fill-rule:nonzero;fill:rgb(0%,0%,0%);fill-opacity:1" d="M 415.613281 182.214844 L 421.726562 182.214844 L 421.726562 189.554688 C 419.292969 190.875 416.546875 191.507812 413.78125 191.386719 C 408.277344 191.386719 403.386719 188.941406 403.386719 182.214844 C 403.40625 179.570312 404.546875 177.054688 406.53125 175.304688 C 408.515625 173.554688 411.152344 172.730469 413.78125 173.042969 C 415.886719 172.957031 417.984375 173.375 419.894531 174.265625 L 421.117188 173.042969 L 421.117188 179.160156 C 419.101562 177.90625 416.765625 177.269531 414.390625 177.324219 C 411.335938 177.324219 409.5 179.160156 409.5 182.828125 C 409.363281 184.21875 409.816406 185.605469 410.742188 186.648438 C 411.671875 187.695312 412.996094 188.304688 414.390625 188.332031 L 416.835938 188.332031 L 416.835938 183.441406 Z M 415.613281 182.214844 "></path>
<path style="stroke:none;fill-rule:nonzero;fill:rgb(0%,0%,0%);fill-opacity:1" d="M 443.125 179.160156 C 442.933594 180.667969 441.578125 181.75 440.066406 181.605469 L 437.011719 181.605469 L 437.011719 177.324219 L 441.289062 177.324219 C 441.902344 176.714844 443.125 177.324219 443.125 179.160156 Z M 449.238281 190.777344 L 444.347656 184.050781 C 446.710938 183.191406 448.375 181.054688 448.625 178.546875 C 448.625 175.492188 446.792969 173.042969 441.902344 173.042969 L 430.898438 173.042969 L 432.121094 174.265625 L 432.121094 189.554688 L 430.898438 190.777344 L 438.234375 190.777344 L 437.011719 189.554688 L 437.011719 184.664062 L 439.457031 184.664062 L 443.125 189.554688 L 441.902344 190.777344 Z M 449.238281 190.777344 "></path>
<path style="stroke:none;fill-rule:nonzero;fill:rgb(0%,0%,0%);fill-opacity:1" d="M 471.855469 182.214844 C 471.855469 185.273438 470.632812 187.71875 466.964844 187.71875 C 465.566406 187.691406 464.246094 187.082031 463.316406 186.039062 C 462.386719 184.992188 461.9375 183.609375 462.074219 182.214844 C 462.074219 179.160156 463.296875 176.714844 466.964844 176.714844 C 470.632812 176.714844 471.855469 178.546875 471.855469 182.214844 Z M 477.355469 182.214844 C 477.355469 175.492188 472.46875 173.042969 466.964844 173.042969 C 461.464844 173.042969 456.574219 175.492188 456.574219 182.214844 C 457.148438 187.523438 461.628906 191.542969 466.964844 191.542969 C 472.300781 191.542969 476.78125 187.523438 477.355469 182.214844 Z M 477.355469 182.214844 "></path>
<path style="stroke:none;fill-rule:nonzero;fill:rgb(0%,0%,0%);fill-opacity:1" d="M 504.253906 174.265625 L 504.253906 184.050781 C 504.253906 188.941406 501.808594 190.777344 495.695312 190.777344 C 489.582031 190.777344 487.136719 188.941406 487.136719 184.050781 L 487.136719 174.265625 L 485.914062 173.042969 L 493.25 173.042969 L 492.027344 174.265625 L 492.027344 184.050781 C 492.027344 186.496094 493.25 187.109375 495.695312 187.109375 C 498.140625 187.109375 499.363281 185.886719 499.363281 184.050781 L 499.363281 174.265625 L 498.140625 173.042969 L 505.476562 173.042969 Z M 504.253906 174.265625 "></path>
<path style="stroke:none;fill-rule:nonzero;fill:rgb(0%,0%,0%);fill-opacity:1" d="M 526.261719 179.160156 C 526.261719 181.605469 525.039062 182.214844 522.59375 182.214844 L 520.148438 182.214844 L 520.148438 176.714844 L 523.207031 176.714844 C 525.039062 176.714844 526.261719 177.324219 526.261719 179.160156 Z M 531.765625 179.160156 C 531.765625 174.265625 526.875 173.042969 523.207031 173.042969 L 513.425781 173.042969 L 514.648438 174.265625 L 514.648438 189.554688 L 513.425781 190.777344 L 521.371094 190.777344 L 520.148438 189.554688 L 520.148438 185.886719 L 523.207031 185.886719 C 527.484375 185.886719 531.765625 184.664062 531.765625 179.160156 Z M 531.765625 179.160156 "></path>
<path style="stroke:none;fill-rule:evenodd;fill:rgb(0%,0%,0%);fill-opacity:1" d="M 338.589844 91.109375 C 329.488281 119.988281 302.839844 139.730469 272.566406 140.027344 C 242.238281 140.492188 215.285156 120.769531 206.546875 91.71875 C 217.375 118.523438 243.671875 135.816406 272.566406 135.132812 C 301.625 135.753906 327.984375 118.175781 338.589844 91.109375 Z M 206.546875 48.917969 C 215.714844 21.402344 237.109375 0 272.566406 0 C 303.296875 -0.0898438 330.421875 20.070312 339.199219 49.527344 C 328.542969 22.148438 301.9375 4.324219 272.566406 4.890625 C 243.507812 4.273438 217.148438 21.847656 206.546875 48.917969 Z M 206.546875 48.917969 "></path>
<path style="stroke:none;fill-rule:evenodd;fill:rgb(0%,0%,0%);fill-opacity:1" d="M 273.789062 42.191406 C 274.402344 41.578125 275.625 42.191406 276.234375 42.191406 C 276.847656 42.191406 277.457031 44.027344 278.679688 43.414062 C 279.902344 42.800781 280.515625 45.25 282.960938 44.636719 C 285.40625 44.027344 282.347656 45.25 282.347656 45.25 C 281.570312 44.890625 280.679688 44.890625 279.902344 45.25 C 279.292969 45.25 279.902344 45.25 279.292969 44.636719 C 278.679688 44.027344 278.070312 44.636719 275.625 42.800781 C 275.011719 41.578125 273.179688 42.800781 273.789062 42.191406 Z M 286.015625 90.496094 C 287.238281 91.109375 288.460938 91.71875 288.460938 93.554688 C 289.683594 97.222656 287.851562 94.164062 287.851562 99.058594 C 287.851562 103.949219 286.628906 103.335938 286.628906 103.335938 C 286.566406 106.636719 285.5 109.835938 283.570312 112.507812 C 282.496094 113.417969 282.238281 114.96875 282.960938 116.179688 C 282.113281 117.492188 281.492188 118.9375 281.125 120.457031 C 281.242188 122.097656 282.546875 123.398438 284.183594 123.515625 C 285.40625 122.90625 281.738281 122.90625 285.40625 121.070312 C 287.238281 120.457031 285.40625 119.234375 285.40625 119.234375 C 285.40625 119.234375 287.851562 119.234375 289.683594 114.957031 C 292.128906 115.566406 291.519531 113.734375 297.019531 112.507812 C 298.242188 111.898438 298.855469 111.898438 298.855469 110.675781 C 298.855469 109.453125 300.6875 110.675781 306.191406 105.171875 C 310.46875 100.890625 308.632812 99.667969 311.691406 98.445312 C 314.746094 97.222656 315.359375 98.445312 315.96875 97.222656 C 317.289062 95.894531 318.144531 94.179688 318.414062 92.332031 L 319.027344 91.109375 Z M 256.0625 45.25 C 255.316406 42.144531 255.75 38.875 257.285156 36.078125 C 259.011719 33.84375 262.042969 33.085938 264.621094 34.242188 C 267.675781 31.796875 268.289062 34.242188 271.34375 33.019531 C 274.402344 31.796875 273.179688 37.300781 276.234375 38.523438 C 277.457031 34.851562 273.179688 31.796875 275.625 29.960938 C 277.492188 29.09375 279.160156 27.84375 280.515625 26.292969 C 281.125 24.457031 281.738281 22.625 282.960938 22.625 C 283.621094 22.480469 284.191406 22.070312 284.539062 21.492188 C 284.886719 20.914062 284.976562 20.214844 284.792969 19.566406 C 286.335938 19.890625 287.9375 19.433594 289.074219 18.34375 C 287.851562 17.734375 285.40625 17.121094 286.015625 15.285156 C 286.628906 13.453125 291.519531 17.121094 292.742188 14.0625 C 289.683594 12.839844 287.238281 10.394531 285.40625 9.785156 C 284.183594 11.007812 283.570312 10.394531 281.738281 9.171875 C 279.902344 7.949219 278.679688 9.171875 277.457031 7.949219 C 276.234375 10.394531 278.070312 10.394531 278.679688 11.007812 C 280.515625 12.839844 276.847656 9.171875 277.457031 14.0625 C 277.457031 15.285156 275.625 15.285156 274.402344 12.839844 C 273.789062 11.617188 268.289062 11.617188 267.675781 10.394531 C 272.179688 5.933594 278.535156 3.890625 284.792969 4.890625 C 270.734375 -0.613281 251.171875 5.503906 251.171875 7.335938 C 249.335938 8.558594 249.949219 9.785156 248.726562 10.394531 C 247.503906 11.007812 245.058594 15.898438 245.058594 15.898438 C 245.058594 15.898438 246.28125 16.507812 242.613281 20.179688 C 240.984375 22.398438 239.746094 24.882812 238.945312 27.515625 C 240.0625 29.570312 240.492188 31.925781 240.167969 34.242188 C 240.167969 37.300781 239.554688 34.851562 240.777344 36.6875 C 242 38.523438 242 42.191406 242.613281 40.355469 C 243.222656 37.300781 240.777344 34.242188 241.390625 31.183594 C 241.390625 31.796875 242.613281 29.960938 242.613281 31.183594 C 243.515625 35.136719 245.175781 38.871094 247.503906 42.191406 C 247.503906 42.191406 245.667969 44.027344 247.503906 44.027344 Z M 256.0625 45.25 "></path>
<path style="stroke:none;fill-rule:nonzero;fill:rgb(0%,0%,0%);fill-opacity:1" d="M 153.359375 55.644531 L 142.355469 55.644531 L 144.191406 57.476562 L 144.191406 71.542969 C 144.191406 74.597656 142.355469 75.820312 138.6875 75.820312 C 135.023438 75.820312 133.1875 74.597656 133.1875 71.542969 L 133.1875 57.476562 L 135.023438 55.644531 L 124.019531 55.644531 L 125.851562 57.476562 L 125.851562 71.542969 C 125.851562 78.265625 130.132812 81.324219 138.6875 81.324219 C 147.246094 81.324219 151.527344 78.878906 151.527344 71.542969 L 151.527344 57.476562 Z M 153.359375 55.644531 "></path>
<path style="stroke:none;fill-rule:nonzero;fill:rgb(0%,0%,0%);fill-opacity:1" d="M 191.261719 55.644531 L 181.480469 55.644531 L 183.316406 57.476562 L 183.316406 70.320312 L 170.476562 55.644531 L 161.917969 55.644531 L 163.753906 57.476562 L 163.753906 78.878906 L 161.917969 81.324219 L 171.089844 81.324219 L 169.253906 78.878906 L 169.253906 66.039062 L 183.316406 81.324219 L 189.429688 81.324219 L 189.429688 57.476562 Z M 191.261719 55.644531 "></path>
<path style="stroke:none;fill-rule:nonzero;fill:rgb(0%,0%,0%);fill-opacity:1" d="M 212.046875 81.324219 L 210.214844 78.878906 L 210.214844 57.476562 L 212.046875 55.644531 L 201.042969 55.644531 L 202.878906 57.476562 L 202.878906 78.878906 L 201.042969 81.324219 Z M 212.046875 81.324219 "></path>
<path style="stroke:none;fill-rule:nonzero;fill:rgb(0%,0%,0%);fill-opacity:1" d="M 248.113281 55.644531 L 238.945312 55.644531 L 240.777344 57.476562 L 234.054688 71.542969 L 227.941406 57.476562 L 229.773438 55.644531 L 218.773438 55.644531 L 230.996094 81.324219 L 235.886719 81.324219 Z M 248.113281 55.644531 "></path>
<path style="stroke:none;fill-rule:nonzero;fill:rgb(0%,0%,0%);fill-opacity:1" d="M 279.292969 81.324219 L 279.292969 73.988281 L 277.457031 75.820312 L 264.007812 75.820312 L 264.007812 70.929688 L 272.566406 70.929688 L 274.402344 72.152344 L 274.402344 64.203125 L 272.566406 66.039062 L 264.007812 66.039062 L 264.007812 61.148438 L 277.457031 61.148438 L 279.292969 62.371094 L 279.292969 55.644531 L 254.839844 55.644531 L 256.671875 57.476562 L 256.671875 78.878906 L 254.839844 81.324219 Z M 279.292969 81.324219 "></path>
<path style="stroke:none;fill-rule:evenodd;fill:rgb(0%,0%,0%);fill-opacity:1" d="M 315.96875 81.324219 L 309.246094 71.542969 C 312.808594 70.523438 315.289062 67.296875 315.359375 63.59375 C 315.359375 59.3125 312.914062 55.644531 305.578125 55.644531 L 289.074219 55.644531 L 290.90625 57.476562 L 290.90625 78.878906 L 289.074219 81.324219 L 300.078125 81.324219 L 298.242188 79.492188 L 298.242188 72.152344 L 301.300781 72.152344 L 306.191406 79.492188 L 304.355469 81.324219 Z M 307.410156 63.59375 C 307.410156 65.425781 305.578125 66.648438 303.132812 66.648438 L 298.242188 66.648438 L 298.242188 60.535156 L 304.355469 60.535156 C 305.578125 61.148438 307.410156 61.757812 307.410156 63.59375 Z M 307.410156 63.59375 "></path>
<path style="stroke:none;fill-rule:nonzero;fill:rgb(0%,0%,0%);fill-opacity:1" d="M 348.980469 73.375 C 348.980469 69.09375 345.925781 67.261719 341.035156 65.425781 C 337.976562 64.203125 333.699219 63.59375 333.699219 61.757812 C 333.699219 59.921875 334.921875 59.921875 336.753906 59.921875 C 340.597656 60.152344 344.347656 61.195312 347.757812 62.980469 L 347.757812 54.421875 L 345.925781 56.253906 C 343.140625 55.351562 340.273438 54.738281 337.367188 54.421875 C 328.808594 54.421875 325.75 58.089844 325.75 61.757812 C 325.75 66.648438 328.808594 68.484375 333.699219 70.320312 C 337.367188 71.542969 341.035156 71.542969 341.035156 73.988281 C 341.035156 76.433594 339.199219 75.820312 337.976562 75.820312 C 333.699219 75.421875 329.542969 74.175781 325.75 72.152344 L 325.75 81.324219 L 327.585938 78.878906 C 330.953125 79.949219 334.449219 80.566406 337.976562 80.714844 C 345.3125 81.9375 348.980469 78.265625 348.980469 73.375 Z M 348.980469 73.375 "></path>
<path style="stroke:none;fill-rule:evenodd;fill:rgb(0%,0%,0%);fill-opacity:1" d="M 387.496094 81.324219 L 374.65625 55.644531 L 366.097656 55.644531 L 367.320312 57.476562 L 355.707031 81.324219 L 365.488281 81.324219 L 363.652344 79.492188 L 364.875 77.042969 L 377.101562 77.042969 L 378.324219 79.492188 L 376.492188 81.324219 Z M 375.269531 72.152344 L 366.710938 72.152344 L 370.988281 62.980469 Z M 375.269531 72.152344 "></path>
<path style="stroke:none;fill-rule:nonzero;fill:rgb(0%,0%,0%);fill-opacity:1" d="M 418.058594 81.324219 L 418.058594 73.988281 L 416.226562 75.820312 L 404 75.820312 L 404 57.476562 L 405.222656 55.644531 L 394.828125 55.644531 L 396.050781 57.476562 L 396.050781 78.878906 L 394.828125 81.324219 Z M 418.058594 81.324219 "></path>
<path style="stroke:none;fill-rule:nonzero;fill:rgb(0%,0%,0%);fill-opacity:1" d="M 411.335938 59.3125 C 411.335938 61 412.703125 62.371094 414.390625 62.371094 C 416.082031 62.371094 417.449219 61 417.449219 59.3125 C 417.449219 57.625 416.082031 56.253906 414.390625 56.253906 C 412.558594 55.644531 411.335938 57.476562 411.335938 59.3125 Z M 410.722656 59.3125 C 410.722656 57.285156 412.367188 55.644531 414.390625 55.644531 C 416.417969 55.644531 418.058594 57.285156 418.058594 59.3125 C 418.058594 61.339844 416.417969 62.980469 414.390625 62.980469 C 412.558594 62.371094 410.722656 61.148438 410.722656 59.3125 Z M 410.722656 59.3125 "></path>
<path style="stroke:none;fill-rule:evenodd;fill:rgb(0%,0%,0%);fill-opacity:1" d="M 415.613281 57.476562 C 415.003906 57.476562 415.003906 56.867188 414.390625 56.867188 C 413.378906 56.867188 412.558594 57.6875 412.558594 58.699219 C 412.558594 59.714844 413.378906 60.535156 414.390625 60.535156 C 415.003906 60.535156 415.613281 60.535156 415.613281 59.921875 L 415.613281 59.3125 C 415.003906 59.921875 415.003906 59.921875 414.390625 59.921875 C 413.78125 59.921875 413.167969 59.3125 413.167969 58.089844 C 413.226562 57.4375 413.742188 56.921875 414.390625 56.867188 C 414.710938 57.214844 415.144531 57.433594 415.613281 57.476562 Z M 415.613281 57.476562 "></path>
<path style="stroke:none;fill-rule:nonzero;fill:rgb(0%,0%,0%);fill-opacity:1" d="M 704.765625 70.320312 L 704.765625 111.285156 C 704.765625 131.464844 693.761719 138.800781 668.699219 138.800781 C 643.636719 138.800781 632.632812 130.851562 632.632812 111.285156 L 632.632812 70.320312 L 628.351562 64.816406 L 658.917969 64.816406 L 654.636719 70.320312 L 654.636719 110.0625 C 654.636719 119.234375 660.75 122.90625 669.308594 122.90625 C 677.867188 122.90625 683.980469 119.234375 683.980469 110.0625 L 683.980469 69.707031 L 679.703125 64.203125 L 710.269531 64.203125 Z M 704.765625 70.320312 "></path>
<path style="stroke:none;fill-rule:nonzero;fill:rgb(0%,0%,0%);fill-opacity:1" d="M 808.691406 70.320312 L 808.691406 137.578125 L 792.183594 137.578125 L 753.058594 94.777344 L 753.058594 132.078125 L 757.339844 137.578125 L 731.664062 137.578125 L 735.941406 132.078125 L 735.941406 70.320312 L 731.664062 64.816406 L 754.894531 64.816406 L 791.574219 107.007812 L 791.574219 70.320312 L 787.292969 64.816406 L 812.96875 64.816406 Z M 808.691406 70.320312 "></path>
<path style="stroke:none;fill-rule:nonzero;fill:rgb(0%,0%,0%);fill-opacity:1" d="M 839.867188 136.96875 L 844.144531 131.464844 L 844.144531 70.320312 L 839.867188 64.816406 L 870.433594 64.816406 L 866.152344 70.320312 L 866.152344 132.078125 L 870.433594 137.578125 Z M 839.867188 136.96875 "></path>
<path style="stroke:none;fill-rule:nonzero;fill:rgb(0%,0%,0%);fill-opacity:1" d="M 938.898438 136.96875 L 923.617188 136.96875 L 889.996094 64.816406 L 920.558594 64.816406 L 916.28125 70.320312 L 934.007812 110.0625 L 952.347656 70.320312 L 948.070312 64.816406 L 973.746094 64.816406 Z M 938.898438 136.96875 "></path>
<path style="stroke:none;fill-rule:nonzero;fill:rgb(0%,0%,0%);fill-opacity:1" d="M 993.917969 136.96875 L 998.195312 131.464844 L 998.195312 70.320312 L 993.917969 64.816406 L 1062.386719 64.816406 L 1062.386719 84.382812 L 1056.882812 80.101562 L 1019.59375 80.101562 L 1019.59375 94.164062 L 1042.824219 94.164062 L 1048.324219 89.886719 L 1048.324219 113.734375 L 1042.824219 109.453125 L 1019.59375 109.453125 L 1019.59375 122.292969 L 1056.882812 122.292969 L 1062.386719 118.011719 L 1062.386719 137.578125 L 993.917969 137.578125 Z M 993.917969 136.96875 "></path>
<path style="stroke:none;fill-rule:nonzero;fill:rgb(0%,0%,0%);fill-opacity:1" d="M 1130.851562 136.96875 L 1135.132812 131.464844 L 1121.070312 110.675781 L 1111.902344 110.675781 L 1111.902344 131.464844 L 1116.179688 136.96875 L 1085.613281 136.96875 L 1089.894531 131.464844 L 1089.894531 70.320312 L 1085.613281 64.816406 L 1130.851562 64.816406 C 1151.636719 64.816406 1158.972656 74.597656 1158.972656 86.828125 C 1158.613281 96.894531 1152.027344 105.675781 1142.46875 108.839844 L 1162.027344 137.578125 Z M 1129.019531 79.492188 L 1112.511719 79.492188 L 1112.511719 97.835938 L 1126.574219 97.835938 C 1133.296875 97.835938 1138.800781 93.554688 1138.800781 88.664062 C 1138.824219 86.113281 1137.78125 83.671875 1135.921875 81.929688 C 1134.0625 80.1875 1131.558594 79.300781 1129.019531 79.492188 Z M 1129.019531 79.492188 "></path>
<path style="stroke:none;fill-rule:nonzero;fill:rgb(0%,0%,0%);fill-opacity:1" d="M 1217.660156 138.800781 C 1207.796875 138.46875 1198.070312 136.398438 1188.925781 132.6875 L 1183.425781 138.800781 L 1183.425781 111.898438 C 1193.46875 118.378906 1205.097656 121.976562 1217.046875 122.292969 C 1220.105469 122.292969 1226.21875 121.679688 1226.21875 116.789062 C 1226.21875 110.675781 1216.4375 110.675781 1206.042969 107.007812 C 1191.984375 102.113281 1183.425781 96 1183.425781 82.546875 C 1183.425781 72.765625 1191.371094 61.757812 1215.824219 61.757812 C 1223.984375 62.082031 1232.039062 63.734375 1239.667969 66.648438 L 1245.167969 61.148438 L 1245.167969 85.605469 C 1235.625 80.90625 1225.226562 78.199219 1214.601562 77.65625 C 1208.488281 77.65625 1205.433594 79.492188 1205.433594 82.546875 C 1205.433594 88.050781 1217.660156 90.496094 1226.21875 92.941406 C 1239.667969 97.222656 1248.835938 103.949219 1248.835938 114.957031 C 1248.835938 129.628906 1239.054688 138.800781 1217.660156 138.800781 Z M 1217.660156 138.800781 "></path>
<path style="stroke:none;fill-rule:nonzero;fill:rgb(0%,0%,0%);fill-opacity:1" d="M 1325.25 136.96875 L 1329.527344 131.464844 L 1325.863281 124.128906 L 1291.628906 124.128906 L 1287.960938 131.464844 L 1292.238281 136.96875 L 1265.339844 136.96875 L 1297.742188 69.707031 L 1295.296875 64.203125 L 1319.75 64.203125 L 1355.203125 136.355469 L 1325.25 136.355469 Z M 1308.746094 84.992188 L 1296.519531 110.675781 L 1320.359375 110.675781 Z M 1308.746094 84.992188 "></path>
<path style="stroke:none;fill-rule:nonzero;fill:rgb(0%,0%,0%);fill-opacity:1" d="M 1374.15625 136.96875 L 1378.433594 131.464844 L 1378.433594 70.320312 L 1374.15625 64.816406 L 1404.722656 64.816406 L 1400.441406 70.320312 L 1400.441406 122.292969 L 1435.285156 122.292969 L 1440.789062 118.011719 L 1440.789062 137.578125 Z M 1374.15625 136.96875 "></path>
<path style="stroke:none;fill-rule:nonzero;fill:rgb(0%,0%,0%);fill-opacity:1" d="M 1576.5 136.96875 L 1580.78125 131.464844 L 1580.78125 96.613281 L 1561.828125 136.96875 L 1551.4375 136.96875 L 1529.429688 96 L 1529.429688 131.464844 L 1533.707031 136.96875 L 1508.644531 136.96875 L 1512.921875 131.464844 L 1512.921875 70.320312 L 1508.644531 64.816406 L 1534.320312 64.816406 L 1558.160156 108.839844 L 1579.558594 64.816406 L 1605.84375 64.816406 L 1601.5625 70.320312 L 1601.5625 132.078125 L 1605.84375 137.578125 Z M 1576.5 136.96875 "></path>
<path style="stroke:none;fill-rule:nonzero;fill:rgb(0%,0%,0%);fill-opacity:1" d="M 1707.320312 70.320312 L 1707.320312 111.285156 C 1707.320312 131.464844 1696.316406 138.800781 1671.253906 138.800781 C 1646.191406 138.800781 1635.1875 130.851562 1635.1875 111.285156 L 1635.1875 70.320312 L 1630.90625 64.816406 L 1661.472656 64.816406 L 1657.195312 70.320312 L 1657.195312 110.0625 C 1657.195312 119.234375 1663.308594 122.90625 1671.863281 122.90625 C 1680.421875 122.90625 1686.535156 119.234375 1686.535156 110.0625 L 1686.535156 69.707031 L 1682.257812 64.203125 L 1712.824219 64.203125 Z M 1707.320312 70.320312 "></path>
<path style="stroke:none;fill-rule:nonzero;fill:rgb(0%,0%,0%);fill-opacity:1" d="M 1768.453125 138.800781 C 1758.589844 138.46875 1748.863281 136.398438 1739.722656 132.6875 L 1734.21875 138.800781 L 1734.21875 111.898438 C 1744.261719 118.378906 1755.894531 121.976562 1767.839844 122.292969 C 1770.898438 122.292969 1777.011719 121.679688 1777.011719 116.789062 C 1777.011719 110.675781 1767.230469 110.675781 1756.835938 107.007812 C 1742.777344 102.113281 1734.21875 96 1734.21875 82.546875 C 1734.21875 72.765625 1742.167969 61.757812 1766.617188 61.757812 C 1774.777344 62.082031 1782.832031 63.734375 1790.460938 66.648438 L 1795.960938 61.148438 L 1795.960938 85.605469 C 1786.417969 80.90625 1776.019531 78.199219 1765.394531 77.65625 C 1759.28125 77.65625 1756.226562 79.492188 1756.226562 82.546875 C 1756.226562 88.050781 1768.453125 90.496094 1777.011719 92.941406 C 1790.460938 97.222656 1799.628906 103.949219 1799.628906 114.957031 C 1799.628906 129.628906 1789.847656 138.800781 1768.453125 138.800781 Z M 1768.453125 138.800781 "></path>
<path style="stroke:none;fill-rule:nonzero;fill:rgb(0%,0%,0%);fill-opacity:1" d="M 1823.472656 136.96875 L 1827.75 131.464844 L 1827.75 70.320312 L 1823.472656 64.816406 L 1854.035156 64.816406 L 1849.757812 70.320312 L 1849.757812 132.078125 L 1854.035156 137.578125 Z M 1823.472656 136.96875 "></path>
<path style="stroke:none;fill-rule:nonzero;fill:rgb(0%,0%,0%);fill-opacity:1" d="M 1920.058594 138.800781 C 1898.050781 138.800781 1877.878906 127.796875 1877.878906 100.890625 C 1877.878906 79.492188 1893.160156 63.59375 1920.671875 63.59375 C 1928.351562 63.664062 1935.976562 64.902344 1943.289062 67.261719 L 1948.179688 62.371094 L 1948.179688 86.214844 C 1940.332031 81.234375 1931.1875 78.683594 1921.890625 78.878906 C 1915.980469 78.429688 1910.175781 80.628906 1906.046875 84.878906 C 1901.914062 89.128906 1899.882812 94.996094 1900.496094 100.890625 C 1900.15625 106.828125 1902.363281 112.628906 1906.566406 116.832031 C 1910.769531 121.035156 1916.570312 123.246094 1922.503906 122.90625 C 1931.660156 122.851562 1940.59375 120.085938 1948.179688 114.957031 L 1948.179688 132.078125 C 1939.425781 136.386719 1929.816406 138.6875 1920.058594 138.800781 Z M 1920.058594 138.800781 "></path>
<path style="stroke:none;fill-rule:nonzero;fill:rgb(0%,0%,0%);fill-opacity:1" d="M 2071.664062 70.320312 L 2071.664062 110.675781 C 2071.664062 127.796875 2061.273438 138.800781 2036.207031 138.800781 C 2031.027344 138.683594 2025.886719 137.859375 2020.925781 136.355469 L 2020.925781 117.402344 L 2026.425781 122.292969 C 2029.574219 123.339844 2032.898438 123.753906 2036.207031 123.515625 C 2045.378906 123.515625 2050.878906 119.234375 2050.878906 111.285156 L 2050.878906 69.707031 L 2046.601562 64.203125 L 2077.167969 64.203125 Z M 2071.664062 70.320312 "></path>
<path style="stroke:none;fill-rule:nonzero;fill:rgb(0%,0%,0%);fill-opacity:1" d="M 2149.914062 136.96875 L 2154.191406 131.464844 L 2150.523438 124.128906 L 2116.289062 124.128906 L 2112.621094 131.464844 L 2116.902344 136.96875 L 2090.003906 136.96875 L 2122.402344 69.707031 L 2119.957031 64.203125 L 2144.410156 64.203125 L 2179.867188 136.355469 L 2149.914062 136.355469 Z M 2133.40625 84.992188 L 2121.179688 110.675781 L 2145.023438 110.675781 Z M 2133.40625 84.992188 "></path>
<path style="stroke:none;fill-rule:nonzero;fill:rgb(0%,0%,0%);fill-opacity:1" d="M 2237.332031 116.179688 L 2224.492188 116.179688 L 2224.492188 132.078125 L 2228.773438 137.578125 L 2198.207031 137.578125 L 2202.484375 132.078125 L 2202.484375 70.320312 L 2198.207031 64.816406 L 2237.332031 64.816406 C 2251.390625 64.816406 2271.5625 69.09375 2271.5625 88.664062 C 2272.175781 111.285156 2254.449219 116.179688 2237.332031 116.179688 Z M 2236.71875 79.492188 L 2224.492188 79.492188 L 2224.492188 101.503906 L 2234.886719 101.503906 C 2244.667969 101.503906 2250.167969 99.058594 2250.167969 89.886719 C 2250.167969 81.9375 2244.667969 79.492188 2236.71875 79.492188 Z M 2236.71875 79.492188 "></path>
<path style="stroke:none;fill-rule:nonzero;fill:rgb(0%,0%,0%);fill-opacity:1" d="M 2338.199219 136.96875 L 2342.476562 131.464844 L 2338.808594 124.128906 L 2304.574219 124.128906 L 2300.90625 131.464844 L 2305.1875 136.96875 L 2278.289062 136.96875 L 2310.6875 69.707031 L 2308.242188 64.203125 L 2332.695312 64.203125 L 2368.152344 136.355469 L 2338.199219 136.355469 Z M 2321.691406 84.992188 L 2309.464844 110.675781 L 2333.308594 110.675781 Z M 2321.691406 84.992188 "></path>
<path style="stroke:none;fill-rule:nonzero;fill:rgb(0%,0%,0%);fill-opacity:1" d="M 2463.515625 70.320312 L 2463.515625 137.578125 L 2447.011719 137.578125 L 2407.886719 94.777344 L 2407.886719 132.078125 L 2412.167969 137.578125 L 2386.492188 137.578125 L 2390.769531 132.078125 L 2390.769531 70.320312 L 2386.492188 64.816406 L 2409.722656 64.816406 L 2446.398438 107.007812 L 2446.398438 70.320312 L 2442.121094 64.816406 L 2467.796875 64.816406 Z M 2463.515625 70.320312 "></path>
</g>
</svg>
